ISO-10303-21;
HEADER;
/* Generated by software containing ST-Developer
 * from STEP Tools, Inc. (www.steptools.com) 
 */

FILE_DESCRIPTION(
/* description */ (''),
/* implementation_level */ '2;1');

FILE_NAME(
/* name */ 'Cattail Hat.step',
/* time_stamp */ '2026-06-18T10:43:54-04:00',
/* author */ (''),
/* organization */ (''),
/* preprocessor_version */ 'ST-DEVELOPER v20.1',
/* originating_system */ 'Autodesk Translation Framework v15.8.0.0',
/* authorisation */ '');

FILE_SCHEMA (('AUTOMOTIVE_DESIGN { 1 0 10303 214 3 1 1 }'));
ENDSEC;

DATA;
#10=MECHANICAL_DESIGN_GEOMETRIC_PRESENTATION_REPRESENTATION('',(#13),#1245);
#11=SHAPE_REPRESENTATION_RELATIONSHIP('SRR','None',#1252,#12);
#12=ADVANCED_BREP_SHAPE_REPRESENTATION('',(#14),#1244);
#13=STYLED_ITEM('',(#1262),#14);
#14=MANIFOLD_SOLID_BREP('Body1',#607);
#15=FACE_BOUND('',#211,.T.);
#16=FACE_BOUND('',#215,.T.);
#17=FACE_BOUND('',#227,.T.);
#18=FACE_BOUND('',#229,.T.);
#19=FACE_BOUND('',#235,.T.);
#20=FACE_BOUND('',#237,.T.);
#21=FACE_BOUND('',#240,.T.);
#22=(
BOUNDED_CURVE()
B_SPLINE_CURVE(2,(#1059,#1060,#1061),.UNSPECIFIED.,.F.,.F.)
B_SPLINE_CURVE_WITH_KNOTS((3,3),(0.617693279162891,1.11934107429357),
 .UNSPECIFIED.)
CURVE()
GEOMETRIC_REPRESENTATION_ITEM()
RATIONAL_B_SPLINE_CURVE((0.999940106675346,0.941313748815775,0.944417736132147))
REPRESENTATION_ITEM('')
);
#23=(
BOUNDED_CURVE()
B_SPLINE_CURVE(2,(#1063,#1064,#1065),.UNSPECIFIED.,.F.,.F.)
B_SPLINE_CURVE_WITH_KNOTS((3,3),(1.43428590054771,1.5707963267949),
 .UNSPECIFIED.)
CURVE()
GEOMETRIC_REPRESENTATION_ITEM()
RATIONAL_B_SPLINE_CURVE((0.972646784542232,0.984037780101891,1.))
REPRESENTATION_ITEM('')
);
#24=(
BOUNDED_CURVE()
B_SPLINE_CURVE(2,(#1212,#1213,#1214),.UNSPECIFIED.,.F.,.F.)
B_SPLINE_CURVE_WITH_KNOTS((3,3),(-1.5707963267949,-1.37246687505205),
 .UNSPECIFIED.)
CURVE()
GEOMETRIC_REPRESENTATION_ITEM()
RATIONAL_B_SPLINE_CURVE((1.,0.977420138784861,0.964499017113055))
REPRESENTATION_ITEM('')
);
#25=(
BOUNDED_CURVE()
B_SPLINE_CURVE(2,(#1216,#1217,#1218),.UNSPECIFIED.,.F.,.F.)
B_SPLINE_CURVE_WITH_KNOTS((3,3),(-1.17387848574969,-0.643501108793284),
 .UNSPECIFIED.)
CURVE()
GEOMETRIC_REPRESENTATION_ITEM()
RATIONAL_B_SPLINE_CURVE((0.948307011089752,0.939616393540717,1.))
REPRESENTATION_ITEM('')
);
#26=(
BOUNDED_SURFACE()
B_SPLINE_SURFACE(2,2,((#959,#960,#961,#962,#963,#964,#965,#966,#967),(#968,
#969,#970,#971,#972,#973,#974,#975,#976),(#977,#978,#979,#980,#981,#982,
#983,#984,#985)),.UNSPECIFIED.,.F.,.T.,.F.)
B_SPLINE_SURFACE_WITH_KNOTS((3,3),(3,2,2,2,3),(0.617437103615356,1.5707963267949),
(-3.14159265358979,-1.5707963267949,0.,1.5707963267949,3.14159265358979),
 .UNSPECIFIED.)
GEOMETRIC_REPRESENTATION_ITEM()
RATIONAL_B_SPLINE_SURFACE(((1.,0.707106781186548,1.,0.707106781186548,1.,
0.707106781186548,1.,0.707106781186548,1.),(0.888523316638637,0.628280862437542,
0.888523316638637,0.628280862437542,0.888523316638637,0.628280862437542,
0.888523316638637,0.628280862437542,0.888523316638637),(1.,0.707106781186548,
1.,0.707106781186548,1.,0.707106781186548,1.,0.707106781186548,1.)))
REPRESENTATION_ITEM('')
SURFACE()
);
#27=(
BOUNDED_SURFACE()
B_SPLINE_SURFACE(2,2,((#1183,#1184,#1185,#1186,#1187,#1188,#1189,#1190,
#1191),(#1192,#1193,#1194,#1195,#1196,#1197,#1198,#1199,#1200),(#1201,#1202,
#1203,#1204,#1205,#1206,#1207,#1208,#1209)),.UNSPECIFIED.,.F.,.T.,.F.)
B_SPLINE_SURFACE_WITH_KNOTS((3,3),(3,2,2,2,3),(0.643501108793284,1.5707963267949),
(-3.14159265358979,-1.5707963267949,0.,1.5707963267949,3.14159265358979),
 .UNSPECIFIED.)
GEOMETRIC_REPRESENTATION_ITEM()
RATIONAL_B_SPLINE_SURFACE(((1.,0.707106781186548,1.,0.707106781186548,1.,
0.707106781186548,1.,0.707106781186548,1.),(0.894427190999917,0.632455532033677,
0.894427190999917,0.632455532033677,0.894427190999917,0.632455532033677,
0.894427190999917,0.632455532033677,0.894427190999917),(1.,0.707106781186548,
1.,0.707106781186548,1.,0.707106781186548,1.,0.707106781186548,1.)))
REPRESENTATION_ITEM('')
SURFACE()
);
#28=B_SPLINE_CURVE_WITH_KNOTS('',3,(#850,#851,#852,#853,#854,#855,#856,
#857,#858,#859),.UNSPECIFIED.,.F.,.F.,(4,2,2,2,4),(35.4253403261533,35.6962804361094,
36.6954110351553,37.6945416342011,38.2804655361876),.UNSPECIFIED.);
#29=B_SPLINE_CURVE_WITH_KNOTS('',3,(#867,#868,#869,#870),.UNSPECIFIED.,
 .F.,.F.,(4,4),(32.6738875945558,34.0913182157036),.UNSPECIFIED.);
#30=B_SPLINE_CURVE_WITH_KNOTS('',3,(#872,#873,#874,#875),.UNSPECIFIED.,
 .F.,.F.,(4,4),(31.2564569734081,32.6738875945558),.UNSPECIFIED.);
#31=B_SPLINE_CURVE_WITH_KNOTS('',3,(#881,#882,#883,#884,#885,#886,#887,
#888,#889,#890),.UNSPECIFIED.,.F.,.F.,(4,2,2,2,4),(25.9703465039413,26.5562704059277,
27.5554010049736,28.5545316040194,28.8254717139755),.UNSPECIFIED.);
#32=B_SPLINE_CURVE_WITH_KNOTS('',3,(#896,#897,#898,#899),.UNSPECIFIED.,
 .F.,.F.,(4,4),(31.6101221438648,33.0594144238762),.UNSPECIFIED.);
#33=B_SPLINE_CURVE_WITH_KNOTS('',3,(#900,#901,#902,#903),.UNSPECIFIED.,
 .F.,.F.,(4,4),(30.1608298638534,31.6101221438648),.UNSPECIFIED.);
#34=B_SPLINE_CURVE_WITH_KNOTS('',3,(#909,#910,#911,#912,#913,#914,#915,
#916,#917,#918),.UNSPECIFIED.,.F.,.F.,(4,2,2,2,4),(35.4253403261533,35.6962804361094,
36.6954110351553,37.6945416342011,38.2804655361876),.UNSPECIFIED.);
#35=B_SPLINE_CURVE_WITH_KNOTS('',3,(#926,#927,#928,#929,#930,#931),
 .UNSPECIFIED.,.F.,.F.,(4,2,4),(31.2564569734081,32.6738875945558,34.0913182157036),
 .UNSPECIFIED.);
#36=B_SPLINE_CURVE_WITH_KNOTS('',3,(#937,#938,#939,#940,#941,#942,#943,
#944,#945,#946),.UNSPECIFIED.,.F.,.F.,(4,2,2,2,4),(25.9703465039413,26.5562704059277,
27.5554010049736,28.5545316040194,28.8254717139755),.UNSPECIFIED.);
#37=B_SPLINE_CURVE_WITH_KNOTS('',3,(#951,#952,#953,#954,#955,#956),
 .UNSPECIFIED.,.F.,.F.,(4,2,4),(30.1608298638534,31.6101221438648,33.0594144238762),
 .UNSPECIFIED.);
#38=B_SPLINE_CURVE_WITH_KNOTS('',3,(#987,#988,#989,#990,#991,#992,#993,
#994,#995,#996,#997,#998,#999,#1000,#1001,#1002,#1003,#1004,#1005,#1006,
#1007,#1008,#1009,#1010,#1011,#1012,#1013,#1014,#1015,#1016,#1017,#1018,
#1019,#1020,#1021,#1022,#1023,#1024,#1025,#1026,#1027,#1028,#1029,#1030,
#1031,#1032,#1033,#1034,#1035,#1036,#1037,#1038,#1039,#1040,#1041,#1042,
#1043,#1044,#1045,#1046,#1047,#1048,#1049,#1050,#1051,#1052,#1053,#1054),
 .UNSPECIFIED.,.F.,.F.,(4,2,2,2,2,2,2,2,2,2,2,2,2,2,2,2,2,2,2,2,2,2,2,2,
2,2,2,2,2,2,2,2,2,4),(15.3855557272869,15.4074865812336,16.3256458588572,
17.2438051364808,18.1619644141044,19.080123691728,19.9756106253313,20.8710975589346,
21.7665844925379,22.6620714261411,23.5390055808891,24.415939735637,25.2928738903849,
26.1698080451328,27.0364452656466,27.9030824861603,28.769719706674,29.6363569271878,
30.5029941477015,31.3696313682152,32.236268588729,33.1029058092427,33.9798399639906,
34.8567741187385,35.7337082734865,36.6106424282344,37.5061293618377,38.4016162954409,
39.2971032290442,40.1925901626475,41.1107494402711,42.0289087178947,42.9470679955183,
43.8652272731419),.UNSPECIFIED.);
#39=B_SPLINE_CURVE_WITH_KNOTS('',3,(#1055,#1056,#1057,#1058),
 .UNSPECIFIED.,.F.,.F.,(4,4),(43.8652272731419,43.8871581270886),
 .UNSPECIFIED.);
#40=B_SPLINE_CURVE_WITH_KNOTS('',3,(#1077,#1078,#1079,#1080,#1081,#1082,
#1083,#1084),.UNSPECIFIED.,.F.,.F.,(4,2,2,4),(27.9033019502432,27.9566222696959,
28.9302910325344,29.8006239772379),.UNSPECIFIED.);
#41=B_SPLINE_CURVE_WITH_KNOTS('',3,(#1092,#1093,#1094,#1095),
 .UNSPECIFIED.,.F.,.F.,(4,4),(33.1608922433985,34.1234042301738),
 .UNSPECIFIED.);
#42=B_SPLINE_CURVE_WITH_KNOTS('',3,(#1100,#1101,#1102,#1103),
 .UNSPECIFIED.,.F.,.F.,(4,4),(34.1234042301738,35.0859162169492),
 .UNSPECIFIED.);
#43=B_SPLINE_CURVE_WITH_KNOTS('',3,(#1106,#1107,#1108,#1109,#1110,#1111,
#1112,#1113),.UNSPECIFIED.,.F.,.F.,(4,2,2,4),(37.6858054106092,38.5561383553127,
39.5298071181512,39.5831274376039),.UNSPECIFIED.);
#44=B_SPLINE_CURVE_WITH_KNOTS('',3,(#1119,#1120,#1121,#1122),
 .UNSPECIFIED.,.F.,.F.,(4,4),(32.4297806758609,33.4032005658514),
 .UNSPECIFIED.);
#45=B_SPLINE_CURVE_WITH_KNOTS('',3,(#1124,#1125,#1126,#1127),
 .UNSPECIFIED.,.F.,.F.,(4,4),(33.4032005658514,34.3766204558418),
 .UNSPECIFIED.);
#46=B_SPLINE_CURVE_WITH_KNOTS('',3,(#1132,#1133,#1134,#1135,#1136,#1137,
#1138,#1139),.UNSPECIFIED.,.F.,.F.,(4,2,2,4),(27.9033019502432,27.9566222696959,
28.9302910325344,29.8006239772379),.UNSPECIFIED.);
#47=B_SPLINE_CURVE_WITH_KNOTS('',3,(#1147,#1148,#1149,#1150,#1151,#1152),
 .UNSPECIFIED.,.F.,.F.,(4,2,4),(33.1608922433985,34.1234042301738,35.0859162169492),
 .UNSPECIFIED.);
#48=B_SPLINE_CURVE_WITH_KNOTS('',3,(#1158,#1159,#1160,#1161,#1162,#1163,
#1164,#1165),.UNSPECIFIED.,.F.,.F.,(4,2,2,4),(37.6858054106092,38.5561383553127,
39.5298071181512,39.5831274376039),.UNSPECIFIED.);
#49=B_SPLINE_CURVE_WITH_KNOTS('',3,(#1170,#1171,#1172,#1173,#1174,#1175),
 .UNSPECIFIED.,.F.,.F.,(4,2,4),(32.4297806758609,33.4032005658514,34.3766204558418),
 .UNSPECIFIED.);
#50=LINE('',#843,#88);
#51=LINE('',#846,#89);
#52=LINE('',#861,#90);
#53=LINE('',#863,#91);
#54=LINE('',#864,#92);
#55=LINE('',#877,#93);
#56=LINE('',#878,#94);
#57=LINE('',#892,#95);
#58=LINE('',#893,#96);
#59=LINE('',#904,#97);
#60=LINE('',#920,#98);
#61=LINE('',#922,#99);
#62=LINE('',#923,#100);
#63=LINE('',#933,#101);
#64=LINE('',#934,#102);
#65=LINE('',#948,#103);
#66=LINE('',#949,#104);
#67=LINE('',#957,#105);
#68=LINE('',#1086,#106);
#69=LINE('',#1088,#107);
#70=LINE('',#1089,#108);
#71=LINE('',#1097,#109);
#72=LINE('',#1099,#110);
#73=LINE('',#1115,#111);
#74=LINE('',#1116,#112);
#75=LINE('',#1123,#113);
#76=LINE('',#1141,#114);
#77=LINE('',#1143,#115);
#78=LINE('',#1144,#116);
#79=LINE('',#1154,#117);
#80=LINE('',#1155,#118);
#81=LINE('',#1167,#119);
#82=LINE('',#1168,#120);
#83=LINE('',#1176,#121);
#84=LINE('',#1224,#122);
#85=LINE('',#1229,#123);
#86=LINE('',#1233,#124);
#87=LINE('',#1240,#125);
#88=VECTOR('',#696,1.);
#89=VECTOR('',#699,1.);
#90=VECTOR('',#702,1.);
#91=VECTOR('',#703,1.);
#92=VECTOR('',#704,1.);
#93=VECTOR('',#707,1.);
#94=VECTOR('',#708,1.);
#95=VECTOR('',#711,1.);
#96=VECTOR('',#712,1.);
#97=VECTOR('',#715,1.);
#98=VECTOR('',#720,1.);
#99=VECTOR('',#721,1.);
#100=VECTOR('',#722,1.);
#101=VECTOR('',#725,1.);
#102=VECTOR('',#726,1.);
#103=VECTOR('',#729,1.);
#104=VECTOR('',#730,1.);
#105=VECTOR('',#733,1.);
#106=VECTOR('',#752,1.);
#107=VECTOR('',#753,1.);
#108=VECTOR('',#754,1.);
#109=VECTOR('',#757,1.);
#110=VECTOR('',#758,1.);
#111=VECTOR('',#761,1.);
#112=VECTOR('',#762,1.);
#113=VECTOR('',#765,1.);
#114=VECTOR('',#770,1.);
#115=VECTOR('',#771,1.);
#116=VECTOR('',#772,1.);
#117=VECTOR('',#775,1.);
#118=VECTOR('',#776,1.);
#119=VECTOR('',#779,1.);
#120=VECTOR('',#780,1.);
#121=VECTOR('',#783,1.);
#122=VECTOR('',#802,9.25);
#123=VECTOR('',#807,9.75);
#124=VECTOR('',#812,10.25);
#125=VECTOR('',#823,10.5);
#126=PLANE('',#629);
#127=PLANE('',#631);
#128=PLANE('',#632);
#129=PLANE('',#633);
#130=PLANE('',#634);
#131=PLANE('',#635);
#132=PLANE('',#636);
#133=PLANE('',#637);
#134=PLANE('',#638);
#135=PLANE('',#639);
#136=PLANE('',#640);
#137=PLANE('',#642);
#138=PLANE('',#645);
#139=PLANE('',#648);
#140=PLANE('',#649);
#141=PLANE('',#650);
#142=PLANE('',#651);
#143=PLANE('',#652);
#144=PLANE('',#653);
#145=PLANE('',#654);
#146=PLANE('',#655);
#147=PLANE('',#656);
#148=PLANE('',#657);
#149=PLANE('',#658);
#150=PLANE('',#663);
#151=PLANE('',#671);
#152=PLANE('',#672);
#153=PLANE('',#675);
#154=CYLINDRICAL_SURFACE('',#626,10.);
#155=CYLINDRICAL_SURFACE('',#643,9.75);
#156=CYLINDRICAL_SURFACE('',#664,9.25);
#157=CYLINDRICAL_SURFACE('',#666,9.75);
#158=CYLINDRICAL_SURFACE('',#669,10.25);
#159=CYLINDRICAL_SURFACE('',#674,10.5);
#160=FACE_OUTER_BOUND('',#197,.T.);
#161=FACE_OUTER_BOUND('',#198,.T.);
#162=FACE_OUTER_BOUND('',#199,.T.);
#163=FACE_OUTER_BOUND('',#200,.T.);
#164=FACE_OUTER_BOUND('',#201,.T.);
#165=FACE_OUTER_BOUND('',#202,.T.);
#166=FACE_OUTER_BOUND('',#203,.T.);
#167=FACE_OUTER_BOUND('',#204,.T.);
#168=FACE_OUTER_BOUND('',#205,.T.);
#169=FACE_OUTER_BOUND('',#206,.T.);
#170=FACE_OUTER_BOUND('',#207,.T.);
#171=FACE_OUTER_BOUND('',#208,.T.);
#172=FACE_OUTER_BOUND('',#209,.T.);
#173=FACE_OUTER_BOUND('',#210,.T.);
#174=FACE_OUTER_BOUND('',#212,.T.);
#175=FACE_OUTER_BOUND('',#213,.T.);
#176=FACE_OUTER_BOUND('',#214,.T.);
#177=FACE_OUTER_BOUND('',#216,.T.);
#178=FACE_OUTER_BOUND('',#217,.T.);
#179=FACE_OUTER_BOUND('',#218,.T.);
#180=FACE_OUTER_BOUND('',#219,.T.);
#181=FACE_OUTER_BOUND('',#220,.T.);
#182=FACE_OUTER_BOUND('',#221,.T.);
#183=FACE_OUTER_BOUND('',#222,.T.);
#184=FACE_OUTER_BOUND('',#223,.T.);
#185=FACE_OUTER_BOUND('',#224,.T.);
#186=FACE_OUTER_BOUND('',#225,.T.);
#187=FACE_OUTER_BOUND('',#226,.T.);
#188=FACE_OUTER_BOUND('',#228,.T.);
#189=FACE_OUTER_BOUND('',#230,.T.);
#190=FACE_OUTER_BOUND('',#231,.T.);
#191=FACE_OUTER_BOUND('',#232,.T.);
#192=FACE_OUTER_BOUND('',#233,.T.);
#193=FACE_OUTER_BOUND('',#234,.T.);
#194=FACE_OUTER_BOUND('',#236,.T.);
#195=FACE_OUTER_BOUND('',#238,.T.);
#196=FACE_OUTER_BOUND('',#239,.T.);
#197=EDGE_LOOP('',(#401,#402,#403,#404));
#198=EDGE_LOOP('',(#405,#406));
#199=EDGE_LOOP('',(#407,#408,#409,#410));
#200=EDGE_LOOP('',(#411,#412,#413,#414));
#201=EDGE_LOOP('',(#415,#416,#417,#418,#419));
#202=EDGE_LOOP('',(#420,#421,#422,#423));
#203=EDGE_LOOP('',(#424,#425,#426,#427,#428));
#204=EDGE_LOOP('',(#429,#430,#431,#432));
#205=EDGE_LOOP('',(#433,#434,#435,#436));
#206=EDGE_LOOP('',(#437,#438,#439,#440));
#207=EDGE_LOOP('',(#441,#442,#443,#444));
#208=EDGE_LOOP('',(#445,#446,#447,#448));
#209=EDGE_LOOP('',(#449,#450,#451,#452));
#210=EDGE_LOOP('',(#453,#454,#455,#456,#457,#458,#459,#460,#461,#462,#463,
#464,#465,#466));
#211=EDGE_LOOP('',(#467,#468,#469,#470));
#212=EDGE_LOOP('',(#471));
#213=EDGE_LOOP('',(#472,#473));
#214=EDGE_LOOP('',(#474,#475,#476,#477,#478));
#215=EDGE_LOOP('',(#479,#480,#481,#482,#483));
#216=EDGE_LOOP('',(#484,#485,#486,#487));
#217=EDGE_LOOP('',(#488,#489,#490,#491,#492));
#218=EDGE_LOOP('',(#493,#494,#495,#496));
#219=EDGE_LOOP('',(#497,#498,#499,#500,#501));
#220=EDGE_LOOP('',(#502,#503,#504,#505));
#221=EDGE_LOOP('',(#506,#507,#508,#509));
#222=EDGE_LOOP('',(#510,#511,#512,#513));
#223=EDGE_LOOP('',(#514,#515,#516,#517));
#224=EDGE_LOOP('',(#518,#519,#520,#521));
#225=EDGE_LOOP('',(#522,#523,#524,#525));
#226=EDGE_LOOP('',(#526));
#227=EDGE_LOOP('',(#527));
#228=EDGE_LOOP('',(#528,#529,#530,#531,#532,#533,#534,#535,#536,#537,#538,
#539));
#229=EDGE_LOOP('',(#540,#541,#542,#543));
#230=EDGE_LOOP('',(#544));
#231=EDGE_LOOP('',(#545,#546,#547,#548,#549,#550));
#232=EDGE_LOOP('',(#551,#552,#553,#554));
#233=EDGE_LOOP('',(#555,#556,#557,#558));
#234=EDGE_LOOP('',(#559));
#235=EDGE_LOOP('',(#560));
#236=EDGE_LOOP('',(#561));
#237=EDGE_LOOP('',(#562));
#238=EDGE_LOOP('',(#563,#564,#565,#566));
#239=EDGE_LOOP('',(#567));
#240=EDGE_LOOP('',(#568));
#241=ELLIPSE('',#623,11.3126908468228,10.9392230896133);
#242=ELLIPSE('',#625,11.3126908468228,10.9392230896133);
#243=ELLIPSE('',#627,10.0381983754335,10.);
#244=ELLIPSE('',#644,9.78724341604764,9.75);
#245=ELLIPSE('',#646,9.28533349727596,9.25);
#246=ELLIPSE('',#647,9.28533349727596,9.25);
#247=ELLIPSE('',#659,10.6619794248003,10.5);
#248=ELLIPSE('',#660,10.4081227718289,10.25);
#249=ELLIPSE('',#665,9.28533349727596,9.25);
#250=ELLIPSE('',#667,9.78724341604764,9.75);
#251=ELLIPSE('',#668,9.78724341604764,9.75);
#252=ELLIPSE('',#670,10.2891533348193,10.25);
#253=CIRCLE('',#622,9.25);
#254=CIRCLE('',#624,9.75);
#255=CIRCLE('',#628,10.);
#256=CIRCLE('',#630,9.99596669241483);
#257=CIRCLE('',#641,2.25);
#258=CIRCLE('',#661,2.25);
#259=CIRCLE('',#662,10.25);
#260=CIRCLE('',#673,10.5);
#261=VERTEX_POINT('',#828);
#262=VERTEX_POINT('',#829);
#263=VERTEX_POINT('',#831);
#264=VERTEX_POINT('',#833);
#265=VERTEX_POINT('',#837);
#266=VERTEX_POINT('',#838);
#267=VERTEX_POINT('',#842);
#268=VERTEX_POINT('',#844);
#269=VERTEX_POINT('',#848);
#270=VERTEX_POINT('',#849);
#271=VERTEX_POINT('',#860);
#272=VERTEX_POINT('',#862);
#273=VERTEX_POINT('',#866);
#274=VERTEX_POINT('',#871);
#275=VERTEX_POINT('',#876);
#276=VERTEX_POINT('',#880);
#277=VERTEX_POINT('',#891);
#278=VERTEX_POINT('',#895);
#279=VERTEX_POINT('',#907);
#280=VERTEX_POINT('',#908);
#281=VERTEX_POINT('',#919);
#282=VERTEX_POINT('',#921);
#283=VERTEX_POINT('',#925);
#284=VERTEX_POINT('',#932);
#285=VERTEX_POINT('',#936);
#286=VERTEX_POINT('',#947);
#287=VERTEX_POINT('',#986);
#288=VERTEX_POINT('',#1062);
#289=VERTEX_POINT('',#1071);
#290=VERTEX_POINT('',#1075);
#291=VERTEX_POINT('',#1076);
#292=VERTEX_POINT('',#1085);
#293=VERTEX_POINT('',#1087);
#294=VERTEX_POINT('',#1091);
#295=VERTEX_POINT('',#1096);
#296=VERTEX_POINT('',#1098);
#297=VERTEX_POINT('',#1105);
#298=VERTEX_POINT('',#1114);
#299=VERTEX_POINT('',#1118);
#300=VERTEX_POINT('',#1130);
#301=VERTEX_POINT('',#1131);
#302=VERTEX_POINT('',#1140);
#303=VERTEX_POINT('',#1142);
#304=VERTEX_POINT('',#1146);
#305=VERTEX_POINT('',#1153);
#306=VERTEX_POINT('',#1157);
#307=VERTEX_POINT('',#1166);
#308=VERTEX_POINT('',#1179);
#309=VERTEX_POINT('',#1181);
#310=VERTEX_POINT('',#1210);
#311=VERTEX_POINT('',#1215);
#312=VERTEX_POINT('',#1222);
#313=VERTEX_POINT('',#1226);
#314=VERTEX_POINT('',#1228);
#315=VERTEX_POINT('',#1232);
#316=VERTEX_POINT('',#1237);
#317=EDGE_CURVE('',#261,#262,#253,.T.);
#318=EDGE_CURVE('',#261,#263,#241,.T.);
#319=EDGE_CURVE('',#263,#264,#254,.F.);
#320=EDGE_CURVE('',#264,#262,#242,.T.);
#321=EDGE_CURVE('',#265,#266,#243,.T.);
#322=EDGE_CURVE('',#265,#266,#255,.F.);
#323=EDGE_CURVE('',#266,#267,#50,.T.);
#324=EDGE_CURVE('',#267,#268,#256,.F.);
#325=EDGE_CURVE('',#268,#265,#51,.T.);
#326=EDGE_CURVE('',#269,#270,#28,.F.);
#327=EDGE_CURVE('',#270,#271,#52,.T.);
#328=EDGE_CURVE('',#272,#271,#53,.F.);
#329=EDGE_CURVE('',#269,#272,#54,.F.);
#330=EDGE_CURVE('',#270,#273,#29,.F.);
#331=EDGE_CURVE('',#273,#274,#30,.F.);
#332=EDGE_CURVE('',#274,#275,#55,.T.);
#333=EDGE_CURVE('',#271,#275,#56,.F.);
#334=EDGE_CURVE('',#274,#276,#31,.F.);
#335=EDGE_CURVE('',#276,#277,#57,.T.);
#336=EDGE_CURVE('',#275,#277,#58,.F.);
#337=EDGE_CURVE('',#276,#278,#32,.F.);
#338=EDGE_CURVE('',#278,#269,#33,.F.);
#339=EDGE_CURVE('',#277,#272,#59,.F.);
#340=EDGE_CURVE('',#279,#280,#34,.F.);
#341=EDGE_CURVE('',#280,#281,#60,.T.);
#342=EDGE_CURVE('',#282,#281,#61,.F.);
#343=EDGE_CURVE('',#279,#282,#62,.F.);
#344=EDGE_CURVE('',#280,#283,#35,.F.);
#345=EDGE_CURVE('',#283,#284,#63,.T.);
#346=EDGE_CURVE('',#281,#284,#64,.F.);
#347=EDGE_CURVE('',#283,#285,#36,.F.);
#348=EDGE_CURVE('',#285,#286,#65,.T.);
#349=EDGE_CURVE('',#284,#286,#66,.F.);
#350=EDGE_CURVE('',#285,#279,#37,.F.);
#351=EDGE_CURVE('',#286,#282,#67,.F.);
#352=EDGE_CURVE('',#268,#287,#38,.T.);
#353=EDGE_CURVE('',#287,#267,#39,.T.);
#354=EDGE_CURVE('',#287,#278,#22,.T.);
#355=EDGE_CURVE('',#273,#288,#23,.T.);
#356=EDGE_CURVE('',#288,#288,#257,.T.);
#357=EDGE_CURVE('',#264,#263,#244,.T.);
#358=EDGE_CURVE('',#261,#289,#245,.F.);
#359=EDGE_CURVE('',#289,#262,#246,.F.);
#360=EDGE_CURVE('',#290,#291,#40,.T.);
#361=EDGE_CURVE('',#290,#292,#68,.T.);
#362=EDGE_CURVE('',#292,#293,#69,.T.);
#363=EDGE_CURVE('',#291,#293,#70,.T.);
#364=EDGE_CURVE('',#291,#294,#41,.T.);
#365=EDGE_CURVE('',#293,#295,#71,.T.);
#366=EDGE_CURVE('',#296,#295,#72,.T.);
#367=EDGE_CURVE('',#294,#296,#42,.T.);
#368=EDGE_CURVE('',#296,#297,#43,.T.);
#369=EDGE_CURVE('',#295,#298,#73,.T.);
#370=EDGE_CURVE('',#297,#298,#74,.T.);
#371=EDGE_CURVE('',#297,#299,#44,.T.);
#372=EDGE_CURVE('',#298,#292,#75,.T.);
#373=EDGE_CURVE('',#299,#290,#45,.T.);
#374=EDGE_CURVE('',#300,#301,#46,.T.);
#375=EDGE_CURVE('',#300,#302,#76,.T.);
#376=EDGE_CURVE('',#302,#303,#77,.T.);
#377=EDGE_CURVE('',#301,#303,#78,.T.);
#378=EDGE_CURVE('',#301,#304,#47,.T.);
#379=EDGE_CURVE('',#303,#305,#79,.T.);
#380=EDGE_CURVE('',#304,#305,#80,.T.);
#381=EDGE_CURVE('',#304,#306,#48,.T.);
#382=EDGE_CURVE('',#305,#307,#81,.T.);
#383=EDGE_CURVE('',#306,#307,#82,.T.);
#384=EDGE_CURVE('',#306,#300,#49,.T.);
#385=EDGE_CURVE('',#307,#302,#83,.T.);
#386=EDGE_CURVE('',#308,#308,#247,.F.);
#387=EDGE_CURVE('',#309,#309,#248,.T.);
#388=EDGE_CURVE('',#310,#310,#258,.T.);
#389=EDGE_CURVE('',#310,#294,#24,.T.);
#390=EDGE_CURVE('',#299,#311,#25,.T.);
#391=EDGE_CURVE('',#311,#311,#259,.T.);
#392=EDGE_CURVE('',#312,#312,#249,.T.);
#393=EDGE_CURVE('',#312,#289,#84,.T.);
#394=EDGE_CURVE('',#313,#313,#250,.T.);
#395=EDGE_CURVE('',#313,#314,#85,.T.);
#396=EDGE_CURVE('',#314,#314,#251,.T.);
#397=EDGE_CURVE('',#309,#315,#86,.T.);
#398=EDGE_CURVE('',#315,#315,#252,.T.);
#399=EDGE_CURVE('',#316,#316,#260,.T.);
#400=EDGE_CURVE('',#316,#308,#87,.T.);
#401=ORIENTED_EDGE('',*,*,#317,.F.);
#402=ORIENTED_EDGE('',*,*,#318,.T.);
#403=ORIENTED_EDGE('',*,*,#319,.T.);
#404=ORIENTED_EDGE('',*,*,#320,.T.);
#405=ORIENTED_EDGE('',*,*,#321,.T.);
#406=ORIENTED_EDGE('',*,*,#322,.F.);
#407=ORIENTED_EDGE('',*,*,#323,.T.);
#408=ORIENTED_EDGE('',*,*,#324,.T.);
#409=ORIENTED_EDGE('',*,*,#325,.T.);
#410=ORIENTED_EDGE('',*,*,#322,.T.);
#411=ORIENTED_EDGE('',*,*,#326,.T.);
#412=ORIENTED_EDGE('',*,*,#327,.T.);
#413=ORIENTED_EDGE('',*,*,#328,.F.);
#414=ORIENTED_EDGE('',*,*,#329,.F.);
#415=ORIENTED_EDGE('',*,*,#330,.T.);
#416=ORIENTED_EDGE('',*,*,#331,.T.);
#417=ORIENTED_EDGE('',*,*,#332,.T.);
#418=ORIENTED_EDGE('',*,*,#333,.F.);
#419=ORIENTED_EDGE('',*,*,#327,.F.);
#420=ORIENTED_EDGE('',*,*,#334,.T.);
#421=ORIENTED_EDGE('',*,*,#335,.T.);
#422=ORIENTED_EDGE('',*,*,#336,.F.);
#423=ORIENTED_EDGE('',*,*,#332,.F.);
#424=ORIENTED_EDGE('',*,*,#337,.T.);
#425=ORIENTED_EDGE('',*,*,#338,.T.);
#426=ORIENTED_EDGE('',*,*,#329,.T.);
#427=ORIENTED_EDGE('',*,*,#339,.F.);
#428=ORIENTED_EDGE('',*,*,#335,.F.);
#429=ORIENTED_EDGE('',*,*,#339,.T.);
#430=ORIENTED_EDGE('',*,*,#328,.T.);
#431=ORIENTED_EDGE('',*,*,#333,.T.);
#432=ORIENTED_EDGE('',*,*,#336,.T.);
#433=ORIENTED_EDGE('',*,*,#340,.T.);
#434=ORIENTED_EDGE('',*,*,#341,.T.);
#435=ORIENTED_EDGE('',*,*,#342,.F.);
#436=ORIENTED_EDGE('',*,*,#343,.F.);
#437=ORIENTED_EDGE('',*,*,#344,.T.);
#438=ORIENTED_EDGE('',*,*,#345,.T.);
#439=ORIENTED_EDGE('',*,*,#346,.F.);
#440=ORIENTED_EDGE('',*,*,#341,.F.);
#441=ORIENTED_EDGE('',*,*,#347,.T.);
#442=ORIENTED_EDGE('',*,*,#348,.T.);
#443=ORIENTED_EDGE('',*,*,#349,.F.);
#444=ORIENTED_EDGE('',*,*,#345,.F.);
#445=ORIENTED_EDGE('',*,*,#350,.T.);
#446=ORIENTED_EDGE('',*,*,#343,.T.);
#447=ORIENTED_EDGE('',*,*,#351,.F.);
#448=ORIENTED_EDGE('',*,*,#348,.F.);
#449=ORIENTED_EDGE('',*,*,#351,.T.);
#450=ORIENTED_EDGE('',*,*,#342,.T.);
#451=ORIENTED_EDGE('',*,*,#346,.T.);
#452=ORIENTED_EDGE('',*,*,#349,.T.);
#453=ORIENTED_EDGE('',*,*,#352,.F.);
#454=ORIENTED_EDGE('',*,*,#324,.F.);
#455=ORIENTED_EDGE('',*,*,#353,.F.);
#456=ORIENTED_EDGE('',*,*,#354,.T.);
#457=ORIENTED_EDGE('',*,*,#337,.F.);
#458=ORIENTED_EDGE('',*,*,#334,.F.);
#459=ORIENTED_EDGE('',*,*,#331,.F.);
#460=ORIENTED_EDGE('',*,*,#355,.T.);
#461=ORIENTED_EDGE('',*,*,#356,.F.);
#462=ORIENTED_EDGE('',*,*,#355,.F.);
#463=ORIENTED_EDGE('',*,*,#330,.F.);
#464=ORIENTED_EDGE('',*,*,#326,.F.);
#465=ORIENTED_EDGE('',*,*,#338,.F.);
#466=ORIENTED_EDGE('',*,*,#354,.F.);
#467=ORIENTED_EDGE('',*,*,#347,.F.);
#468=ORIENTED_EDGE('',*,*,#344,.F.);
#469=ORIENTED_EDGE('',*,*,#340,.F.);
#470=ORIENTED_EDGE('',*,*,#350,.F.);
#471=ORIENTED_EDGE('',*,*,#356,.T.);
#472=ORIENTED_EDGE('',*,*,#357,.F.);
#473=ORIENTED_EDGE('',*,*,#319,.F.);
#474=ORIENTED_EDGE('',*,*,#321,.F.);
#475=ORIENTED_EDGE('',*,*,#325,.F.);
#476=ORIENTED_EDGE('',*,*,#352,.T.);
#477=ORIENTED_EDGE('',*,*,#353,.T.);
#478=ORIENTED_EDGE('',*,*,#323,.F.);
#479=ORIENTED_EDGE('',*,*,#320,.F.);
#480=ORIENTED_EDGE('',*,*,#357,.T.);
#481=ORIENTED_EDGE('',*,*,#318,.F.);
#482=ORIENTED_EDGE('',*,*,#358,.T.);
#483=ORIENTED_EDGE('',*,*,#359,.T.);
#484=ORIENTED_EDGE('',*,*,#360,.F.);
#485=ORIENTED_EDGE('',*,*,#361,.T.);
#486=ORIENTED_EDGE('',*,*,#362,.T.);
#487=ORIENTED_EDGE('',*,*,#363,.F.);
#488=ORIENTED_EDGE('',*,*,#364,.F.);
#489=ORIENTED_EDGE('',*,*,#363,.T.);
#490=ORIENTED_EDGE('',*,*,#365,.T.);
#491=ORIENTED_EDGE('',*,*,#366,.F.);
#492=ORIENTED_EDGE('',*,*,#367,.F.);
#493=ORIENTED_EDGE('',*,*,#368,.F.);
#494=ORIENTED_EDGE('',*,*,#366,.T.);
#495=ORIENTED_EDGE('',*,*,#369,.T.);
#496=ORIENTED_EDGE('',*,*,#370,.F.);
#497=ORIENTED_EDGE('',*,*,#371,.F.);
#498=ORIENTED_EDGE('',*,*,#370,.T.);
#499=ORIENTED_EDGE('',*,*,#372,.T.);
#500=ORIENTED_EDGE('',*,*,#361,.F.);
#501=ORIENTED_EDGE('',*,*,#373,.F.);
#502=ORIENTED_EDGE('',*,*,#372,.F.);
#503=ORIENTED_EDGE('',*,*,#369,.F.);
#504=ORIENTED_EDGE('',*,*,#365,.F.);
#505=ORIENTED_EDGE('',*,*,#362,.F.);
#506=ORIENTED_EDGE('',*,*,#374,.F.);
#507=ORIENTED_EDGE('',*,*,#375,.T.);
#508=ORIENTED_EDGE('',*,*,#376,.T.);
#509=ORIENTED_EDGE('',*,*,#377,.F.);
#510=ORIENTED_EDGE('',*,*,#378,.F.);
#511=ORIENTED_EDGE('',*,*,#377,.T.);
#512=ORIENTED_EDGE('',*,*,#379,.T.);
#513=ORIENTED_EDGE('',*,*,#380,.F.);
#514=ORIENTED_EDGE('',*,*,#381,.F.);
#515=ORIENTED_EDGE('',*,*,#380,.T.);
#516=ORIENTED_EDGE('',*,*,#382,.T.);
#517=ORIENTED_EDGE('',*,*,#383,.F.);
#518=ORIENTED_EDGE('',*,*,#384,.F.);
#519=ORIENTED_EDGE('',*,*,#383,.T.);
#520=ORIENTED_EDGE('',*,*,#385,.T.);
#521=ORIENTED_EDGE('',*,*,#375,.F.);
#522=ORIENTED_EDGE('',*,*,#385,.F.);
#523=ORIENTED_EDGE('',*,*,#382,.F.);
#524=ORIENTED_EDGE('',*,*,#379,.F.);
#525=ORIENTED_EDGE('',*,*,#376,.F.);
#526=ORIENTED_EDGE('',*,*,#386,.T.);
#527=ORIENTED_EDGE('',*,*,#387,.T.);
#528=ORIENTED_EDGE('',*,*,#388,.T.);
#529=ORIENTED_EDGE('',*,*,#389,.T.);
#530=ORIENTED_EDGE('',*,*,#367,.T.);
#531=ORIENTED_EDGE('',*,*,#368,.T.);
#532=ORIENTED_EDGE('',*,*,#371,.T.);
#533=ORIENTED_EDGE('',*,*,#390,.T.);
#534=ORIENTED_EDGE('',*,*,#391,.T.);
#535=ORIENTED_EDGE('',*,*,#390,.F.);
#536=ORIENTED_EDGE('',*,*,#373,.T.);
#537=ORIENTED_EDGE('',*,*,#360,.T.);
#538=ORIENTED_EDGE('',*,*,#364,.T.);
#539=ORIENTED_EDGE('',*,*,#389,.F.);
#540=ORIENTED_EDGE('',*,*,#381,.T.);
#541=ORIENTED_EDGE('',*,*,#384,.T.);
#542=ORIENTED_EDGE('',*,*,#374,.T.);
#543=ORIENTED_EDGE('',*,*,#378,.T.);
#544=ORIENTED_EDGE('',*,*,#388,.F.);
#545=ORIENTED_EDGE('',*,*,#392,.F.);
#546=ORIENTED_EDGE('',*,*,#393,.T.);
#547=ORIENTED_EDGE('',*,*,#358,.F.);
#548=ORIENTED_EDGE('',*,*,#317,.T.);
#549=ORIENTED_EDGE('',*,*,#359,.F.);
#550=ORIENTED_EDGE('',*,*,#393,.F.);
#551=ORIENTED_EDGE('',*,*,#394,.F.);
#552=ORIENTED_EDGE('',*,*,#395,.T.);
#553=ORIENTED_EDGE('',*,*,#396,.T.);
#554=ORIENTED_EDGE('',*,*,#395,.F.);
#555=ORIENTED_EDGE('',*,*,#387,.F.);
#556=ORIENTED_EDGE('',*,*,#397,.T.);
#557=ORIENTED_EDGE('',*,*,#398,.T.);
#558=ORIENTED_EDGE('',*,*,#397,.F.);
#559=ORIENTED_EDGE('',*,*,#398,.F.);
#560=ORIENTED_EDGE('',*,*,#396,.F.);
#561=ORIENTED_EDGE('',*,*,#399,.F.);
#562=ORIENTED_EDGE('',*,*,#391,.F.);
#563=ORIENTED_EDGE('',*,*,#399,.T.);
#564=ORIENTED_EDGE('',*,*,#400,.T.);
#565=ORIENTED_EDGE('',*,*,#386,.F.);
#566=ORIENTED_EDGE('',*,*,#400,.F.);
#567=ORIENTED_EDGE('',*,*,#394,.T.);
#568=ORIENTED_EDGE('',*,*,#392,.T.);
#569=CONICAL_SURFACE('',#621,4.625,1.22173047639603);
#570=ADVANCED_FACE('',(#160),#569,.T.);
#571=ADVANCED_FACE('',(#161),#154,.F.);
#572=ADVANCED_FACE('',(#162),#126,.F.);
#573=ADVANCED_FACE('',(#163),#127,.T.);
#574=ADVANCED_FACE('',(#164),#128,.T.);
#575=ADVANCED_FACE('',(#165),#129,.T.);
#576=ADVANCED_FACE('',(#166),#130,.T.);
#577=ADVANCED_FACE('',(#167),#131,.T.);
#578=ADVANCED_FACE('',(#168),#132,.T.);
#579=ADVANCED_FACE('',(#169),#133,.T.);
#580=ADVANCED_FACE('',(#170),#134,.T.);
#581=ADVANCED_FACE('',(#171),#135,.T.);
#582=ADVANCED_FACE('',(#172),#136,.T.);
#583=ADVANCED_FACE('',(#173,#15),#26,.F.);
#584=ADVANCED_FACE('',(#174),#137,.F.);
#585=ADVANCED_FACE('',(#175),#155,.T.);
#586=ADVANCED_FACE('',(#176,#16),#138,.T.);
#587=ADVANCED_FACE('',(#177),#139,.F.);
#588=ADVANCED_FACE('',(#178),#140,.F.);
#589=ADVANCED_FACE('',(#179),#141,.F.);
#590=ADVANCED_FACE('',(#180),#142,.F.);
#591=ADVANCED_FACE('',(#181),#143,.F.);
#592=ADVANCED_FACE('',(#182),#144,.F.);
#593=ADVANCED_FACE('',(#183),#145,.F.);
#594=ADVANCED_FACE('',(#184),#146,.F.);
#595=ADVANCED_FACE('',(#185),#147,.F.);
#596=ADVANCED_FACE('',(#186),#148,.F.);
#597=ADVANCED_FACE('',(#187,#17),#149,.F.);
#598=ADVANCED_FACE('',(#188,#18),#27,.T.);
#599=ADVANCED_FACE('',(#189),#150,.T.);
#600=ADVANCED_FACE('',(#190),#156,.F.);
#601=ADVANCED_FACE('',(#191),#157,.T.);
#602=ADVANCED_FACE('',(#192),#158,.F.);
#603=ADVANCED_FACE('',(#193,#19),#151,.F.);
#604=ADVANCED_FACE('',(#194,#20),#152,.T.);
#605=ADVANCED_FACE('',(#195),#159,.T.);
#606=ADVANCED_FACE('',(#196,#21),#153,.F.);
#607=CLOSED_SHELL('',(#570,#571,#572,#573,#574,#575,#576,#577,#578,#579,
#580,#581,#582,#583,#584,#585,#586,#587,#588,#589,#590,#591,#592,#593,#594,
#595,#596,#597,#598,#599,#600,#601,#602,#603,#604,#605,#606));
#608=DERIVED_UNIT_ELEMENT(#610,1.);
#609=DERIVED_UNIT_ELEMENT(#1247,-3.);
#610=(
MASS_UNIT()
NAMED_UNIT(*)
SI_UNIT(.KILO.,.GRAM.)
);
#611=DERIVED_UNIT((#608,#609));
#612=MEASURE_REPRESENTATION_ITEM('density measure',
POSITIVE_RATIO_MEASURE(7850.),#611);
#613=PROPERTY_DEFINITION_REPRESENTATION(#618,#615);
#614=PROPERTY_DEFINITION_REPRESENTATION(#619,#616);
#615=REPRESENTATION('material name',(#617),#1244);
#616=REPRESENTATION('density',(#612),#1244);
#617=DESCRIPTIVE_REPRESENTATION_ITEM('Steel','Steel');
#618=PROPERTY_DEFINITION('material property','material name',#1254);
#619=PROPERTY_DEFINITION('material property','density of part',#1254);
#620=AXIS2_PLACEMENT_3D('',#826,#676,#677);
#621=AXIS2_PLACEMENT_3D('',#827,#678,#679);
#622=AXIS2_PLACEMENT_3D('',#830,#680,#681);
#623=AXIS2_PLACEMENT_3D('',#832,#682,#683);
#624=AXIS2_PLACEMENT_3D('',#834,#684,#685);
#625=AXIS2_PLACEMENT_3D('',#835,#686,#687);
#626=AXIS2_PLACEMENT_3D('',#836,#688,#689);
#627=AXIS2_PLACEMENT_3D('',#839,#690,#691);
#628=AXIS2_PLACEMENT_3D('',#840,#692,#693);
#629=AXIS2_PLACEMENT_3D('',#841,#694,#695);
#630=AXIS2_PLACEMENT_3D('',#845,#697,#698);
#631=AXIS2_PLACEMENT_3D('',#847,#700,#701);
#632=AXIS2_PLACEMENT_3D('',#865,#705,#706);
#633=AXIS2_PLACEMENT_3D('',#879,#709,#710);
#634=AXIS2_PLACEMENT_3D('',#894,#713,#714);
#635=AXIS2_PLACEMENT_3D('',#905,#716,#717);
#636=AXIS2_PLACEMENT_3D('',#906,#718,#719);
#637=AXIS2_PLACEMENT_3D('',#924,#723,#724);
#638=AXIS2_PLACEMENT_3D('',#935,#727,#728);
#639=AXIS2_PLACEMENT_3D('',#950,#731,#732);
#640=AXIS2_PLACEMENT_3D('',#958,#734,#735);
#641=AXIS2_PLACEMENT_3D('',#1066,#736,#737);
#642=AXIS2_PLACEMENT_3D('',#1067,#738,#739);
#643=AXIS2_PLACEMENT_3D('',#1068,#740,#741);
#644=AXIS2_PLACEMENT_3D('',#1069,#742,#743);
#645=AXIS2_PLACEMENT_3D('',#1070,#744,#745);
#646=AXIS2_PLACEMENT_3D('',#1072,#746,#747);
#647=AXIS2_PLACEMENT_3D('',#1073,#748,#749);
#648=AXIS2_PLACEMENT_3D('',#1074,#750,#751);
#649=AXIS2_PLACEMENT_3D('',#1090,#755,#756);
#650=AXIS2_PLACEMENT_3D('',#1104,#759,#760);
#651=AXIS2_PLACEMENT_3D('',#1117,#763,#764);
#652=AXIS2_PLACEMENT_3D('',#1128,#766,#767);
#653=AXIS2_PLACEMENT_3D('',#1129,#768,#769);
#654=AXIS2_PLACEMENT_3D('',#1145,#773,#774);
#655=AXIS2_PLACEMENT_3D('',#1156,#777,#778);
#656=AXIS2_PLACEMENT_3D('',#1169,#781,#782);
#657=AXIS2_PLACEMENT_3D('',#1177,#784,#785);
#658=AXIS2_PLACEMENT_3D('',#1178,#786,#787);
#659=AXIS2_PLACEMENT_3D('',#1180,#788,#789);
#660=AXIS2_PLACEMENT_3D('',#1182,#790,#791);
#661=AXIS2_PLACEMENT_3D('',#1211,#792,#793);
#662=AXIS2_PLACEMENT_3D('',#1219,#794,#795);
#663=AXIS2_PLACEMENT_3D('',#1220,#796,#797);
#664=AXIS2_PLACEMENT_3D('',#1221,#798,#799);
#665=AXIS2_PLACEMENT_3D('',#1223,#800,#801);
#666=AXIS2_PLACEMENT_3D('',#1225,#803,#804);
#667=AXIS2_PLACEMENT_3D('',#1227,#805,#806);
#668=AXIS2_PLACEMENT_3D('',#1230,#808,#809);
#669=AXIS2_PLACEMENT_3D('',#1231,#810,#811);
#670=AXIS2_PLACEMENT_3D('',#1234,#813,#814);
#671=AXIS2_PLACEMENT_3D('',#1235,#815,#816);
#672=AXIS2_PLACEMENT_3D('',#1236,#817,#818);
#673=AXIS2_PLACEMENT_3D('',#1238,#819,#820);
#674=AXIS2_PLACEMENT_3D('',#1239,#821,#822);
#675=AXIS2_PLACEMENT_3D('',#1241,#824,#825);
#676=DIRECTION('axis',(0.,0.,1.));
#677=DIRECTION('refdir',(1.,0.,0.));
#678=DIRECTION('center_axis',(0.,-1.,0.));
#679=DIRECTION('ref_axis',(0.,0.,-1.));
#680=DIRECTION('center_axis',(0.,1.,0.));
#681=DIRECTION('ref_axis',(0.,0.,-1.));
#682=DIRECTION('center_axis',(0.,0.996194698091746,-0.0871557427476582));
#683=DIRECTION('ref_axis',(-2.9505433895823E-15,-0.0871557427476582,-0.996194698091746));
#684=DIRECTION('center_axis',(0.,-1.,0.));
#685=DIRECTION('ref_axis',(0.,0.,-1.));
#686=DIRECTION('center_axis',(0.,0.996194698091746,-0.0871557427476582));
#687=DIRECTION('ref_axis',(-2.9505433895823E-15,-0.0871557427476582,-0.996194698091746));
#688=DIRECTION('center_axis',(0.,1.,0.));
#689=DIRECTION('ref_axis',(1.,0.,0.));
#690=DIRECTION('center_axis',(0.,-0.996194698091746,0.0871557427476582));
#691=DIRECTION('ref_axis',(0.,-0.0871557427476582,-0.996194698091746));
#692=DIRECTION('center_axis',(0.,1.,0.));
#693=DIRECTION('ref_axis',(1.,0.,0.));
#694=DIRECTION('center_axis',(0.,1.,0.));
#695=DIRECTION('ref_axis',(1.,0.,0.));
#696=DIRECTION('',(-1.,0.,0.));
#697=DIRECTION('center_axis',(0.,-1.,0.));
#698=DIRECTION('ref_axis',(0.,0.,1.));
#699=DIRECTION('',(-1.,0.,0.));
#700=DIRECTION('center_axis',(0.,0.,1.));
#701=DIRECTION('ref_axis',(-0.939692620785909,0.342020143325669,0.));
#702=DIRECTION('',(-0.342020143325669,-0.939692620785908,0.));
#703=DIRECTION('',(0.939692620785908,-0.342020143325669,0.));
#704=DIRECTION('',(0.342020143325669,0.939692620785908,0.));
#705=DIRECTION('center_axis',(-0.939692620785908,0.342020143325669,0.));
#706=DIRECTION('ref_axis',(0.,0.,-1.));
#707=DIRECTION('',(-0.342020143325669,-0.939692620785908,0.));
#708=DIRECTION('',(0.,0.,1.));
#709=DIRECTION('center_axis',(0.,0.,-1.));
#710=DIRECTION('ref_axis',(0.939692620785909,-0.342020143325669,0.));
#711=DIRECTION('',(-0.342020143325669,-0.939692620785908,0.));
#712=DIRECTION('',(-0.939692620785908,0.342020143325669,0.));
#713=DIRECTION('center_axis',(0.939692620785908,-0.342020143325669,0.));
#714=DIRECTION('ref_axis',(0.,0.,1.));
#715=DIRECTION('',(0.,0.,-1.));
#716=DIRECTION('center_axis',(-0.342020143325669,-0.939692620785908,0.));
#717=DIRECTION('ref_axis',(0.,0.,-1.));
#718=DIRECTION('center_axis',(0.,0.,-1.));
#719=DIRECTION('ref_axis',(0.939692620785909,0.342020143325669,0.));
#720=DIRECTION('',(0.342020143325669,-0.939692620785908,0.));
#721=DIRECTION('',(-0.939692620785908,-0.342020143325669,0.));
#722=DIRECTION('',(-0.342020143325669,0.939692620785908,0.));
#723=DIRECTION('center_axis',(0.939692620785908,0.342020143325669,0.));
#724=DIRECTION('ref_axis',(0.,0.,1.));
#725=DIRECTION('',(0.342020143325669,-0.939692620785908,0.));
#726=DIRECTION('',(0.,0.,-1.));
#727=DIRECTION('center_axis',(0.,0.,1.));
#728=DIRECTION('ref_axis',(-0.939692620785909,-0.342020143325669,0.));
#729=DIRECTION('',(0.342020143325669,-0.939692620785908,0.));
#730=DIRECTION('',(0.939692620785908,0.342020143325669,0.));
#731=DIRECTION('center_axis',(-0.939692620785908,-0.342020143325669,0.));
#732=DIRECTION('ref_axis',(0.,0.,-1.));
#733=DIRECTION('',(0.,0.,1.));
#734=DIRECTION('center_axis',(0.342020143325669,-0.939692620785908,0.));
#735=DIRECTION('ref_axis',(0.,0.,-1.));
#736=DIRECTION('center_axis',(0.,-1.,0.));
#737=DIRECTION('ref_axis',(-1.,0.,0.));
#738=DIRECTION('center_axis',(0.,1.,0.));
#739=DIRECTION('ref_axis',(1.,0.,0.));
#740=DIRECTION('center_axis',(0.,1.,0.));
#741=DIRECTION('ref_axis',(0.,0.,-1.));
#742=DIRECTION('center_axis',(0.,-0.996194698091746,0.0871557427476582));
#743=DIRECTION('ref_axis',(0.,-0.0871557427476582,-0.996194698091746));
#744=DIRECTION('center_axis',(0.,0.996194698091746,-0.0871557427476582));
#745=DIRECTION('ref_axis',(1.,0.,0.));
#746=DIRECTION('center_axis',(0.,0.996194698091746,-0.0871557427476582));
#747=DIRECTION('ref_axis',(0.,-0.0871557427476582,-0.996194698091745));
#748=DIRECTION('center_axis',(0.,0.996194698091746,-0.0871557427476582));
#749=DIRECTION('ref_axis',(0.,-0.0871557427476582,-0.996194698091745));
#750=DIRECTION('center_axis',(0.,0.,1.));
#751=DIRECTION('ref_axis',(-0.939692620785909,0.342020143325669,0.));
#752=DIRECTION('',(-0.342020143325669,-0.939692620785908,0.));
#753=DIRECTION('',(-0.939692620785909,0.342020143325669,0.));
#754=DIRECTION('',(-0.342020143325669,-0.939692620785908,0.));
#755=DIRECTION('center_axis',(-0.939692620785908,0.342020143325669,0.));
#756=DIRECTION('ref_axis',(0.,0.,-1.));
#757=DIRECTION('',(0.,0.,-1.));
#758=DIRECTION('',(-0.342020143325669,-0.939692620785908,0.));
#759=DIRECTION('center_axis',(0.,0.,-1.));
#760=DIRECTION('ref_axis',(0.939692620785909,-0.342020143325669,0.));
#761=DIRECTION('',(0.939692620785909,-0.342020143325669,0.));
#762=DIRECTION('',(-0.342020143325669,-0.939692620785908,0.));
#763=DIRECTION('center_axis',(0.939692620785908,-0.342020143325669,0.));
#764=DIRECTION('ref_axis',(0.,0.,1.));
#765=DIRECTION('',(0.,0.,1.));
#766=DIRECTION('center_axis',(-0.342020143325669,-0.939692620785908,0.));
#767=DIRECTION('ref_axis',(0.,0.,-1.));
#768=DIRECTION('center_axis',(0.,0.,-1.));
#769=DIRECTION('ref_axis',(0.939692620785909,0.342020143325669,0.));
#770=DIRECTION('',(0.342020143325669,-0.939692620785908,0.));
#771=DIRECTION('',(0.939692620785909,0.342020143325669,0.));
#772=DIRECTION('',(0.342020143325669,-0.939692620785908,0.));
#773=DIRECTION('center_axis',(0.939692620785908,0.342020143325669,0.));
#774=DIRECTION('ref_axis',(0.,0.,1.));
#775=DIRECTION('',(0.,0.,1.));
#776=DIRECTION('',(0.342020143325669,-0.939692620785908,0.));
#777=DIRECTION('center_axis',(0.,0.,1.));
#778=DIRECTION('ref_axis',(-0.939692620785909,-0.342020143325669,0.));
#779=DIRECTION('',(-0.939692620785909,-0.342020143325669,0.));
#780=DIRECTION('',(0.342020143325669,-0.939692620785908,0.));
#781=DIRECTION('center_axis',(-0.939692620785908,-0.342020143325669,0.));
#782=DIRECTION('ref_axis',(0.,0.,-1.));
#783=DIRECTION('',(0.,0.,-1.));
#784=DIRECTION('center_axis',(0.342020143325669,-0.939692620785908,0.));
#785=DIRECTION('ref_axis',(0.,0.,-1.));
#786=DIRECTION('center_axis',(0.,0.984807753012208,-0.17364817766693));
#787=DIRECTION('ref_axis',(1.,0.,0.));
#788=DIRECTION('center_axis',(0.,0.984807753012208,-0.17364817766693));
#789=DIRECTION('ref_axis',(0.,-0.17364817766693,-0.984807753012208));
#790=DIRECTION('center_axis',(0.,0.984807753012208,-0.17364817766693));
#791=DIRECTION('ref_axis',(0.,-0.17364817766693,-0.984807753012208));
#792=DIRECTION('center_axis',(0.,-1.,0.));
#793=DIRECTION('ref_axis',(-1.,0.,0.));
#794=DIRECTION('center_axis',(0.,1.,0.));
#795=DIRECTION('ref_axis',(1.,0.,0.));
#796=DIRECTION('center_axis',(0.,1.,0.));
#797=DIRECTION('ref_axis',(1.,0.,0.));
#798=DIRECTION('center_axis',(0.,1.,0.));
#799=DIRECTION('ref_axis',(0.,0.,-1.));
#800=DIRECTION('center_axis',(0.,0.996194698091746,-0.0871557427476582));
#801=DIRECTION('ref_axis',(0.,-0.0871557427476582,-0.996194698091745));
#802=DIRECTION('',(0.,1.,0.));
#803=DIRECTION('center_axis',(0.,1.,0.));
#804=DIRECTION('ref_axis',(1.,0.,0.));
#805=DIRECTION('center_axis',(0.,-0.996194698091746,0.0871557427476582));
#806=DIRECTION('ref_axis',(0.,-0.0871557427476582,-0.996194698091746));
#807=DIRECTION('',(0.,1.,0.));
#808=DIRECTION('center_axis',(0.,-0.996194698091746,0.0871557427476582));
#809=DIRECTION('ref_axis',(0.,-0.0871557427476582,-0.996194698091746));
#810=DIRECTION('center_axis',(0.,1.,0.));
#811=DIRECTION('ref_axis',(1.,0.,0.));
#812=DIRECTION('',(0.,1.,0.));
#813=DIRECTION('center_axis',(0.,0.996194698091746,-0.0871557427476582));
#814=DIRECTION('ref_axis',(0.,-0.0871557427476582,-0.996194698091746));
#815=DIRECTION('center_axis',(0.,0.996194698091746,-0.0871557427476582));
#816=DIRECTION('ref_axis',(1.,0.,0.));
#817=DIRECTION('center_axis',(0.,1.,0.));
#818=DIRECTION('ref_axis',(1.,0.,0.));
#819=DIRECTION('center_axis',(0.,-1.,0.));
#820=DIRECTION('ref_axis',(1.,0.,0.));
#821=DIRECTION('center_axis',(0.,1.,0.));
#822=DIRECTION('ref_axis',(1.,0.,0.));
#823=DIRECTION('',(0.,-1.,0.));
#824=DIRECTION('center_axis',(0.,0.996194698091746,-0.0871557427476582));
#825=DIRECTION('ref_axis',(1.,0.,0.));
#826=CARTESIAN_POINT('',(0.,0.,0.));
#827=CARTESIAN_POINT('Origin',(0.,3.68336233348119,0.));
#828=CARTESIAN_POINT('',(7.29040622668361,2.,5.69319567992642));
#829=CARTESIAN_POINT('',(-7.29040622668361,2.,5.69319567992642));
#830=CARTESIAN_POINT('Origin',(0.,2.,0.));
#831=CARTESIAN_POINT('',(9.05582880379752,1.8180148828669,3.61309627277093));
#832=CARTESIAN_POINT('Origin',(0.,1.26491019418212,-2.70891924779859));
#833=CARTESIAN_POINT('',(-9.05582880379752,1.8180148828669,3.61309627277093));
#834=CARTESIAN_POINT('Origin',(0.,1.8180148828669,0.));
#835=CARTESIAN_POINT('Origin',(0.,1.26491019418212,-2.70891924779859));
#836=CARTESIAN_POINT('Origin',(0.,0.,0.));
#837=CARTESIAN_POINT('',(-9.99997617149742,1.5,-0.0218304714542548));
#838=CARTESIAN_POINT('',(9.99997617149742,1.5,-0.0218304714542548));
#839=CARTESIAN_POINT('Origin',(0.,1.50190991877167,0.));
#840=CARTESIAN_POINT('Origin',(0.,1.5,0.));
#841=CARTESIAN_POINT('Origin',(0.,1.5,0.));
#842=CARTESIAN_POINT('',(9.99594285429758,1.5,-0.0218304714542548));
#843=CARTESIAN_POINT('',(0.,1.5,-0.021830471454256));
#844=CARTESIAN_POINT('',(-9.99594285429758,1.5,-0.0218304714542548));
#845=CARTESIAN_POINT('Origin',(0.,1.5,0.));
#846=CARTESIAN_POINT('',(0.,1.5,-0.021830471454256));
#847=CARTESIAN_POINT('Origin',(6.75,7.,1.5));
#848=CARTESIAN_POINT('',(6.3638274862066,4.47709753825705,1.5));
#849=CARTESIAN_POINT('',(3.49695967833936,5.3718561720697,1.5));
#850=CARTESIAN_POINT('Ctrl Pts',(3.49695967833936,5.3718561720697,1.5));
#851=CARTESIAN_POINT('Ctrl Pts',(3.59420550701785,5.3570266567419,1.5));
#852=CARTESIAN_POINT('Ctrl Pts',(3.69135618594443,5.34079981950098,1.5));
#853=CARTESIAN_POINT('Ctrl Pts',(4.14541872834552,5.25818816390413,1.5));
#854=CARTESIAN_POINT('Ctrl Pts',(4.498912097528,5.1738501599079,1.5));
#855=CARTESIAN_POINT('Ctrl Pts',(5.18045114132039,4.97173957011286,1.5));
#856=CARTESIAN_POINT('Ctrl Pts',(5.50850681633196,4.85400070829421,1.5));
#857=CARTESIAN_POINT('Ctrl Pts',(5.99618745067727,4.65072034327972,1.5));
#858=CARTESIAN_POINT('Ctrl Pts',(6.17971510392579,4.56774834824288,1.5));
#859=CARTESIAN_POINT('Ctrl Pts',(6.3638274862066,4.47709753825704,1.5));
#860=CARTESIAN_POINT('',(3.20369794639539,4.56612618556349,1.5));
#861=CARTESIAN_POINT('',(4.40076844803523,7.85505035831417,1.5));
#862=CARTESIAN_POINT('',(6.02277580875311,3.54006575558649,1.5));
#863=CARTESIAN_POINT('',(5.08308318796721,3.88208589891216,1.5));
#864=CARTESIAN_POINT('',(7.21984631039296,6.82898992833717,1.5));
#865=CARTESIAN_POINT('Origin',(4.40076844803523,7.85505035831417,1.));
#866=CARTESIAN_POINT('',(3.51291076039123,5.41568140982309,2.15103745920171E-16));
#867=CARTESIAN_POINT('Ctrl Pts',(3.51291076039123,5.41568140982309,-1.11022302462516E-16));
#868=CARTESIAN_POINT('Ctrl Pts',(3.51291076039123,5.41568140982309,0.472476873715915));
#869=CARTESIAN_POINT('Ctrl Pts',(3.50860000558051,5.40383770831983,0.983937304287778));
#870=CARTESIAN_POINT('Ctrl Pts',(3.49695967833936,5.3718561720697,1.5));
#871=CARTESIAN_POINT('',(3.49695967833936,5.3718561720697,-1.5));
#872=CARTESIAN_POINT('Ctrl Pts',(3.49695967833936,5.3718561720697,-1.5));
#873=CARTESIAN_POINT('Ctrl Pts',(3.50860000558051,5.40383770831983,-0.983937304287781));
#874=CARTESIAN_POINT('Ctrl Pts',(3.51291076039123,5.41568140982309,-0.472476873715914));
#875=CARTESIAN_POINT('Ctrl Pts',(3.51291076039123,5.41568140982309,1.88737914186277E-15));
#876=CARTESIAN_POINT('',(3.20369794639539,4.56612618556349,-1.5));
#877=CARTESIAN_POINT('',(4.40076844803523,7.85505035831417,-1.5));
#878=CARTESIAN_POINT('',(3.20369794639539,4.56612618556349,0.5));
#879=CARTESIAN_POINT('Origin',(4.87061475842818,7.68404028665134,-1.5));
#880=CARTESIAN_POINT('',(6.3638274862066,4.47709753825705,-1.5));
#881=CARTESIAN_POINT('Ctrl Pts',(6.36382748620659,4.47709753825705,-1.5));
#882=CARTESIAN_POINT('Ctrl Pts',(6.17971510392579,4.56774834824289,-1.5));
#883=CARTESIAN_POINT('Ctrl Pts',(5.99618745067727,4.65072034327972,-1.5));
#884=CARTESIAN_POINT('Ctrl Pts',(5.50850681633196,4.85400070829421,-1.5));
#885=CARTESIAN_POINT('Ctrl Pts',(5.18045114132039,4.97173957011286,-1.5));
#886=CARTESIAN_POINT('Ctrl Pts',(4.498912097528,5.1738501599079,-1.5));
#887=CARTESIAN_POINT('Ctrl Pts',(4.14541872834552,5.25818816390413,-1.5));
#888=CARTESIAN_POINT('Ctrl Pts',(3.69135618594443,5.34079981950098,-1.5));
#889=CARTESIAN_POINT('Ctrl Pts',(3.59420550701785,5.3570266567419,-1.5));
#890=CARTESIAN_POINT('Ctrl Pts',(3.49695967833936,5.3718561720697,-1.5));
#891=CARTESIAN_POINT('',(6.02277580875311,3.54006575558649,-1.5));
#892=CARTESIAN_POINT('',(7.21984631039296,6.82898992833717,-1.5));
#893=CARTESIAN_POINT('',(4.1433905671813,4.22410604223783,-1.5));
#894=CARTESIAN_POINT('Origin',(7.21984631039296,6.82898992833717,-1.));
#895=CARTESIAN_POINT('',(6.39045055217778,4.55024381084953,5.57835694385471E-16));
#896=CARTESIAN_POINT('Ctrl Pts',(6.39045055217778,4.55024381084953,3.33066907387547E-16));
#897=CARTESIAN_POINT('Ctrl Pts',(6.39045055217778,4.55024381084953,-0.483097426670474));
#898=CARTESIAN_POINT('Ctrl Pts',(6.38216657400112,4.52748376786589,-0.988034972467683));
#899=CARTESIAN_POINT('Ctrl Pts',(6.36382748620659,4.47709753825705,-1.5));
#900=CARTESIAN_POINT('Ctrl Pts',(6.3638274862066,4.47709753825705,1.5));
#901=CARTESIAN_POINT('Ctrl Pts',(6.38216657400112,4.52748376786589,0.988034972467681));
#902=CARTESIAN_POINT('Ctrl Pts',(6.39045055217778,4.55024381084953,0.483097426670475));
#903=CARTESIAN_POINT('Ctrl Pts',(6.39045055217778,4.55024381084953,0.));
#904=CARTESIAN_POINT('',(6.02277580875312,3.54006575558649,-0.5));
#905=CARTESIAN_POINT('Origin',(4.61323687757425,4.05309597057499,0.));
#906=CARTESIAN_POINT('Origin',(-6.75,7.,-1.5));
#907=CARTESIAN_POINT('',(-6.3638274862066,4.47709753825705,-1.5));
#908=CARTESIAN_POINT('',(-3.49695967833936,5.3718561720697,-1.5));
#909=CARTESIAN_POINT('Ctrl Pts',(-3.49695967833936,5.3718561720697,-1.5));
#910=CARTESIAN_POINT('Ctrl Pts',(-3.59420550701785,5.3570266567419,-1.5));
#911=CARTESIAN_POINT('Ctrl Pts',(-3.69135618594443,5.34079981950098,-1.5));
#912=CARTESIAN_POINT('Ctrl Pts',(-4.14541872834552,5.25818816390413,-1.5));
#913=CARTESIAN_POINT('Ctrl Pts',(-4.498912097528,5.1738501599079,-1.5));
#914=CARTESIAN_POINT('Ctrl Pts',(-5.18045114132039,4.97173957011286,-1.5));
#915=CARTESIAN_POINT('Ctrl Pts',(-5.50850681633196,4.85400070829421,-1.5));
#916=CARTESIAN_POINT('Ctrl Pts',(-5.99618745067727,4.65072034327972,-1.5));
#917=CARTESIAN_POINT('Ctrl Pts',(-6.17971510392579,4.56774834824288,-1.5));
#918=CARTESIAN_POINT('Ctrl Pts',(-6.3638274862066,4.47709753825704,-1.5));
#919=CARTESIAN_POINT('',(-3.20369794639539,4.56612618556349,-1.5));
#920=CARTESIAN_POINT('',(-4.40076844803523,7.85505035831417,-1.5));
#921=CARTESIAN_POINT('',(-6.02277580875311,3.54006575558649,-1.5));
#922=CARTESIAN_POINT('',(-5.08308318796721,3.88208589891216,-1.5));
#923=CARTESIAN_POINT('',(-7.21984631039296,6.82898992833717,-1.5));
#924=CARTESIAN_POINT('Origin',(-4.40076844803523,7.85505035831417,-1.));
#925=CARTESIAN_POINT('',(-3.49695967833936,5.3718561720697,1.5));
#926=CARTESIAN_POINT('Ctrl Pts',(-3.49695967833936,5.3718561720697,1.5));
#927=CARTESIAN_POINT('Ctrl Pts',(-3.50860000558051,5.40383770831983,0.983937304287781));
#928=CARTESIAN_POINT('Ctrl Pts',(-3.51291076039123,5.41568140982309,0.472476873715916));
#929=CARTESIAN_POINT('Ctrl Pts',(-3.51291076039123,5.41568140982309,-0.472476873715915));
#930=CARTESIAN_POINT('Ctrl Pts',(-3.50860000558051,5.40383770831983,-0.983937304287778));
#931=CARTESIAN_POINT('Ctrl Pts',(-3.49695967833936,5.3718561720697,-1.5));
#932=CARTESIAN_POINT('',(-3.20369794639539,4.56612618556349,1.5));
#933=CARTESIAN_POINT('',(-4.40076844803523,7.85505035831418,1.5));
#934=CARTESIAN_POINT('',(-3.20369794639539,4.56612618556349,-0.5));
#935=CARTESIAN_POINT('Origin',(-4.87061475842818,7.68404028665134,1.5));
#936=CARTESIAN_POINT('',(-6.3638274862066,4.47709753825705,1.5));
#937=CARTESIAN_POINT('Ctrl Pts',(-6.36382748620659,4.47709753825705,1.5));
#938=CARTESIAN_POINT('Ctrl Pts',(-6.17971510392579,4.56774834824289,1.5));
#939=CARTESIAN_POINT('Ctrl Pts',(-5.99618745067727,4.65072034327972,1.5));
#940=CARTESIAN_POINT('Ctrl Pts',(-5.50850681633196,4.85400070829421,1.5));
#941=CARTESIAN_POINT('Ctrl Pts',(-5.18045114132039,4.97173957011286,1.5));
#942=CARTESIAN_POINT('Ctrl Pts',(-4.498912097528,5.1738501599079,1.5));
#943=CARTESIAN_POINT('Ctrl Pts',(-4.14541872834552,5.25818816390413,1.5));
#944=CARTESIAN_POINT('Ctrl Pts',(-3.69135618594443,5.34079981950098,1.5));
#945=CARTESIAN_POINT('Ctrl Pts',(-3.59420550701785,5.3570266567419,1.5));
#946=CARTESIAN_POINT('Ctrl Pts',(-3.49695967833935,5.3718561720697,1.5));
#947=CARTESIAN_POINT('',(-6.02277580875311,3.54006575558649,1.5));
#948=CARTESIAN_POINT('',(-7.21984631039296,6.82898992833717,1.5));
#949=CARTESIAN_POINT('',(-4.1433905671813,4.22410604223783,1.5));
#950=CARTESIAN_POINT('Origin',(-7.21984631039296,6.82898992833717,1.));
#951=CARTESIAN_POINT('Ctrl Pts',(-6.3638274862066,4.47709753825705,-1.5));
#952=CARTESIAN_POINT('Ctrl Pts',(-6.38216657400112,4.52748376786589,-0.988034972467681));
#953=CARTESIAN_POINT('Ctrl Pts',(-6.39045055217778,4.55024381084953,-0.483097426670475));
#954=CARTESIAN_POINT('Ctrl Pts',(-6.39045055217778,4.55024381084953,0.483097426670474));
#955=CARTESIAN_POINT('Ctrl Pts',(-6.38216657400112,4.52748376786589,0.988034972467683));
#956=CARTESIAN_POINT('Ctrl Pts',(-6.36382748620659,4.47709753825705,1.5));
#957=CARTESIAN_POINT('',(-6.02277580875312,3.54006575558649,0.5));
#958=CARTESIAN_POINT('Origin',(-4.61323687757425,4.05309597057499,0.));
#959=CARTESIAN_POINT('Ctrl Pts',(9.99596669241483,1.5,0.));
#960=CARTESIAN_POINT('Ctrl Pts',(9.99596669241483,1.5,9.99596669241483));
#961=CARTESIAN_POINT('Ctrl Pts',(0.,1.5,9.99596669241483));
#962=CARTESIAN_POINT('Ctrl Pts',(-9.99596669241483,1.5,9.99596669241483));
#963=CARTESIAN_POINT('Ctrl Pts',(-9.99596669241483,1.5,0.));
#964=CARTESIAN_POINT('Ctrl Pts',(-9.99596669241483,1.5,-9.99596669241483));
#965=CARTESIAN_POINT('Ctrl Pts',(0.,1.5,-9.99596669241483));
#966=CARTESIAN_POINT('Ctrl Pts',(9.99596669241483,1.5,-9.99596669241483));
#967=CARTESIAN_POINT('Ctrl Pts',(9.99596669241483,1.5,0.));
#968=CARTESIAN_POINT('Ctrl Pts',(7.15577890519606,5.5,0.));
#969=CARTESIAN_POINT('Ctrl Pts',(7.15577890519606,5.5,7.15577890519606));
#970=CARTESIAN_POINT('Ctrl Pts',(0.,5.5,7.15577890519606));
#971=CARTESIAN_POINT('Ctrl Pts',(-7.15577890519606,5.5,7.15577890519606));
#972=CARTESIAN_POINT('Ctrl Pts',(-7.15577890519606,5.5,0.));
#973=CARTESIAN_POINT('Ctrl Pts',(-7.15577890519606,5.5,-7.15577890519606));
#974=CARTESIAN_POINT('Ctrl Pts',(0.,5.5,-7.15577890519606));
#975=CARTESIAN_POINT('Ctrl Pts',(7.15577890519606,5.5,-7.15577890519606));
#976=CARTESIAN_POINT('Ctrl Pts',(7.15577890519606,5.5,0.));
#977=CARTESIAN_POINT('Ctrl Pts',(2.25,5.5,0.));
#978=CARTESIAN_POINT('Ctrl Pts',(2.25,5.5,2.25));
#979=CARTESIAN_POINT('Ctrl Pts',(0.,5.5,2.25));
#980=CARTESIAN_POINT('Ctrl Pts',(-2.25,5.5,2.25));
#981=CARTESIAN_POINT('Ctrl Pts',(-2.25,5.5,0.));
#982=CARTESIAN_POINT('Ctrl Pts',(-2.25,5.5,-2.25));
#983=CARTESIAN_POINT('Ctrl Pts',(0.,5.5,-2.25));
#984=CARTESIAN_POINT('Ctrl Pts',(2.25,5.5,-2.25));
#985=CARTESIAN_POINT('Ctrl Pts',(2.25,5.5,0.));
#986=CARTESIAN_POINT('',(9.99461020618351,1.50190991877167,2.09821770792953E-15));
#987=CARTESIAN_POINT('Ctrl Pts',(-9.99594285429758,1.5,-0.0218304714542548));
#988=CARTESIAN_POINT('Ctrl Pts',(-9.99550620750058,1.50063736040296,-0.0145454087127353));
#989=CARTESIAN_POINT('Ctrl Pts',(-9.99506197195038,1.50127400327678,-0.00726854736677268));
#990=CARTESIAN_POINT('Ctrl Pts',(-9.97569653637534,1.52853321911562,0.304305715403469));
#991=CARTESIAN_POINT('Ctrl Pts',(-9.94163062259828,1.55631301921113,0.62183028345534));
#992=CARTESIAN_POINT('Ctrl Pts',(-9.83915113891798,1.61260843467827,1.26528982665042));
#993=CARTESIAN_POINT('Ctrl Pts',(-9.77072653005129,1.64112389740012,1.59122305699859));
#994=CARTESIAN_POINT('Ctrl Pts',(-9.60106557838163,1.69739060156805,2.23435442854204));
#995=CARTESIAN_POINT('Ctrl Pts',(-9.49979332463024,1.72515377522587,2.5516889555416));
#996=CARTESIAN_POINT('Ctrl Pts',(-9.27147877131245,1.77856732250691,3.16220859463987));
#997=CARTESIAN_POINT('Ctrl Pts',(-9.14444706093212,1.80421803995004,3.45539763661826));
#998=CARTESIAN_POINT('Ctrl Pts',(-8.88036022064137,1.85161484549909,3.99714560302768));
#999=CARTESIAN_POINT('Ctrl Pts',(-8.7316715155117,1.87558797053278,4.27115967602346));
#1000=CARTESIAN_POINT('Ctrl Pts',(-8.40081021716501,1.92313629930587,4.81463956080872));
#1001=CARTESIAN_POINT('Ctrl Pts',(-8.21862820357967,1.94671100510775,5.08409968114645));
#1002=CARTESIAN_POINT('Ctrl Pts',(-7.82848386927521,1.99216553143065,5.60364729441439));
#1003=CARTESIAN_POINT('Ctrl Pts',(-7.62044311831471,2.01405451716915,5.85383954625981));
#1004=CARTESIAN_POINT('Ctrl Pts',(-7.19052995990565,2.05514582411953,6.32351533389158));
#1005=CARTESIAN_POINT('Ctrl Pts',(-6.96866594077424,2.0743488119751,6.54300648944998));
#1006=CARTESIAN_POINT('Ctrl Pts',(-6.53178124401657,2.10901277849937,6.93921743984354));
#1007=CARTESIAN_POINT('Ctrl Pts',(-6.2967752410519,2.12612504395854,7.13481152906061));
#1008=CARTESIAN_POINT('Ctrl Pts',(-5.79829517864011,2.15898243425376,7.51037321866723));
#1009=CARTESIAN_POINT('Ctrl Pts',(-5.53481454160877,2.17472680107604,7.69033215491968));
#1010=CARTESIAN_POINT('Ctrl Pts',(-4.99172236937912,2.203915648237,8.02396220462684));
#1011=CARTESIAN_POINT('Ctrl Pts',(-4.71200636762556,2.21736576354857,8.17769772611624));
#1012=CARTESIAN_POINT('Ctrl Pts',(-4.15134088610263,2.24143579260318,8.45281941713943));
#1013=CARTESIAN_POINT('Ctrl Pts',(-3.87039637713517,2.25205658585615,8.5742156395177));
#1014=CARTESIAN_POINT('Ctrl Pts',(-3.32787320380659,2.27022410695417,8.7818713558795));
#1015=CARTESIAN_POINT('Ctrl Pts',(-3.041052824468,2.27864441089394,8.87811587031629));
#1016=CARTESIAN_POINT('Ctrl Pts',(-2.4468717621422,2.29337114051248,9.04644316010482));
#1017=CARTESIAN_POINT('Ctrl Pts',(-2.13950809272952,2.2996766508912,9.11851547352919));
#1018=CARTESIAN_POINT('Ctrl Pts',(-1.51939411382001,2.30970016124123,9.23308472108728));
#1019=CARTESIAN_POINT('Ctrl Pts',(-1.20652750495373,2.31342004852674,9.27560322732106));
#1020=CARTESIAN_POINT('Ctrl Pts',(-0.5912694891971,2.31824372930435,9.33073815090095));
#1021=CARTESIAN_POINT('Ctrl Pts',(-0.288879073504577,2.31934848310167,9.34336554458605));
#1022=CARTESIAN_POINT('Ctrl Pts',(0.288879073504577,2.31934848310167,9.34336554458605));
#1023=CARTESIAN_POINT('Ctrl Pts',(0.591269489197099,2.31824372930435,9.33073815090095));
#1024=CARTESIAN_POINT('Ctrl Pts',(1.20652750495373,2.31342004852674,9.27560322732106));
#1025=CARTESIAN_POINT('Ctrl Pts',(1.51939411382001,2.30970016124123,9.23308472108728));
#1026=CARTESIAN_POINT('Ctrl Pts',(2.13950809272952,2.2996766508912,9.11851547352919));
#1027=CARTESIAN_POINT('Ctrl Pts',(2.4468717621422,2.29337114051248,9.04644316010482));
#1028=CARTESIAN_POINT('Ctrl Pts',(3.04105282446801,2.27864441089394,8.87811587031629));
#1029=CARTESIAN_POINT('Ctrl Pts',(3.3278732038066,2.27022410695417,8.7818713558795));
#1030=CARTESIAN_POINT('Ctrl Pts',(3.87039637713517,2.25205658585615,8.5742156395177));
#1031=CARTESIAN_POINT('Ctrl Pts',(4.15134088610263,2.24143579260318,8.45281941713943));
#1032=CARTESIAN_POINT('Ctrl Pts',(4.71200636762555,2.21736576354857,8.17769772611625));
#1033=CARTESIAN_POINT('Ctrl Pts',(4.99172236937912,2.203915648237,8.02396220462684));
#1034=CARTESIAN_POINT('Ctrl Pts',(5.53481454160876,2.17472680107604,7.69033215491968));
#1035=CARTESIAN_POINT('Ctrl Pts',(5.79829517864011,2.15898243425376,7.51037321866723));
#1036=CARTESIAN_POINT('Ctrl Pts',(6.2967752410519,2.12612504395854,7.13481152906061));
#1037=CARTESIAN_POINT('Ctrl Pts',(6.53178124401657,2.10901277849937,6.93921743984354));
#1038=CARTESIAN_POINT('Ctrl Pts',(6.96866594077424,2.0743488119751,6.54300648944998));
#1039=CARTESIAN_POINT('Ctrl Pts',(7.19052995990565,2.05514582411953,6.32351533389158));
#1040=CARTESIAN_POINT('Ctrl Pts',(7.6204431183147,2.01405451716915,5.85383954625981));
#1041=CARTESIAN_POINT('Ctrl Pts',(7.8284838692752,1.99216553143065,5.6036472944144));
#1042=CARTESIAN_POINT('Ctrl Pts',(8.21862820357967,1.94671100510775,5.08409968114645));
#1043=CARTESIAN_POINT('Ctrl Pts',(8.40081021716501,1.92313629930587,4.81463956080873));
#1044=CARTESIAN_POINT('Ctrl Pts',(8.7316715155117,1.87558797053278,4.27115967602346));
#1045=CARTESIAN_POINT('Ctrl Pts',(8.88036022064137,1.85161484549909,3.99714560302768));
#1046=CARTESIAN_POINT('Ctrl Pts',(9.14444706093212,1.80421803995004,3.45539763661827));
#1047=CARTESIAN_POINT('Ctrl Pts',(9.27147877131244,1.77856732250691,3.16220859463988));
#1048=CARTESIAN_POINT('Ctrl Pts',(9.49979332463024,1.72515377522587,2.55168895554161));
#1049=CARTESIAN_POINT('Ctrl Pts',(9.60106557838163,1.69739060156805,2.23435442854205));
#1050=CARTESIAN_POINT('Ctrl Pts',(9.77072653005129,1.64112389740012,1.5912230569986));
#1051=CARTESIAN_POINT('Ctrl Pts',(9.83915113891798,1.61260843467827,1.26528982665042));
#1052=CARTESIAN_POINT('Ctrl Pts',(9.94163062259828,1.55631301921113,0.621830283455341));
#1053=CARTESIAN_POINT('Ctrl Pts',(9.97569653637533,1.52853321911562,0.304305715403472));
#1054=CARTESIAN_POINT('Ctrl Pts',(9.99461020618351,1.50190991877167,3.10862446895044E-15));
#1055=CARTESIAN_POINT('Ctrl Pts',(9.99461020618351,1.50190991877167,2.97244867608626E-15));
#1056=CARTESIAN_POINT('Ctrl Pts',(9.99506197195038,1.50127400327678,-0.00726854736676928));
#1057=CARTESIAN_POINT('Ctrl Pts',(9.99550620750058,1.50063736040296,-0.014545408712734));
#1058=CARTESIAN_POINT('Ctrl Pts',(9.99594285429758,1.5,-0.0218304714542548));
#1059=CARTESIAN_POINT('Ctrl Pts',(9.99461020618351,1.50190991877167,0.));
#1060=CARTESIAN_POINT('Ctrl Pts',(8.58345557958661,3.48828241214129,0.));
#1061=CARTESIAN_POINT('Ctrl Pts',(6.39045055217879,4.55024381084904,0.));
#1062=CARTESIAN_POINT('',(2.25,5.5,2.75545529808155E-16));
#1063=CARTESIAN_POINT('Ctrl Pts',(3.51291076039434,5.41568140982267,0.));
#1064=CARTESIAN_POINT('Ctrl Pts',(2.8842701573265,5.5,0.));
#1065=CARTESIAN_POINT('Ctrl Pts',(2.25,5.5,0.));
#1066=CARTESIAN_POINT('Origin',(0.,5.5,0.));
#1067=CARTESIAN_POINT('Origin',(0.,5.5,0.));
#1068=CARTESIAN_POINT('Origin',(0.,1.,0.));
#1069=CARTESIAN_POINT('Origin',(0.,1.50190991877167,0.));
#1070=CARTESIAN_POINT('Origin',(0.,1.49809734904587,-0.0435778713738291));
#1071=CARTESIAN_POINT('',(1.1327982892113E-15,2.31118005638647,9.25));
#1072=CARTESIAN_POINT('Origin',(0.,1.50190991877167,0.));
#1073=CARTESIAN_POINT('Origin',(0.,1.50190991877167,0.));
#1074=CARTESIAN_POINT('Origin',(6.75,7.,1.));
#1075=CARTESIAN_POINT('',(6.09388973502266,5.19735186230238,1.));
#1076=CARTESIAN_POINT('',(4.18049353446298,5.78794780712056,1.));
#1077=CARTESIAN_POINT('Ctrl Pts',(6.09388973502266,5.19735186230238,1.));
#1078=CARTESIAN_POINT('Ctrl Pts',(6.07742384172736,5.20428668996755,1.));
#1079=CARTESIAN_POINT('Ctrl Pts',(6.06098175748542,5.21115984870235,1.));
#1080=CARTESIAN_POINT('Ctrl Pts',(5.74478960415575,5.34235490056538,1.));
#1081=CARTESIAN_POINT('Ctrl Pts',(5.42513737787482,5.4577084333816,1.));
#1082=CARTESIAN_POINT('Ctrl Pts',(4.79670872220406,5.64742717725564,1.));
#1083=CARTESIAN_POINT('Ctrl Pts',(4.49038309976993,5.72487321292147,1.));
#1084=CARTESIAN_POINT('Ctrl Pts',(4.18049353446298,5.78794780712056,1.));
#1085=CARTESIAN_POINT('',(5.72393957002299,4.18092213764228,1.));
#1086=CARTESIAN_POINT('',(6.75,7.,1.));
#1087=CARTESIAN_POINT('',(3.84455432845118,4.86496242429361,1.));
#1088=CARTESIAN_POINT('',(5.72393957002299,4.18092213764228,1.));
#1089=CARTESIAN_POINT('',(4.87061475842818,7.68404028665134,1.));
#1090=CARTESIAN_POINT('Origin',(4.87061475842818,7.68404028665134,1.));
#1091=CARTESIAN_POINT('',(4.18862441641749,5.81028722169081,5.06279454760466E-16));
#1092=CARTESIAN_POINT('Ctrl Pts',(4.18049353446298,5.78794780712056,1.));
#1093=CARTESIAN_POINT('Ctrl Pts',(4.18615525105878,5.80350324562286,0.656837528052877));
#1094=CARTESIAN_POINT('Ctrl Pts',(4.18862441641749,5.81028722169081,0.320837328925123));
#1095=CARTESIAN_POINT('Ctrl Pts',(4.18862441641749,5.81028722169081,4.44089209850063E-16));
#1096=CARTESIAN_POINT('',(3.84455432845118,4.86496242429361,-1.));
#1097=CARTESIAN_POINT('',(3.84455432845118,4.86496242429361,1.));
#1098=CARTESIAN_POINT('',(4.18049353446298,5.78794780712056,-1.));
#1099=CARTESIAN_POINT('',(4.87061475842818,7.68404028665134,-1.));
#1100=CARTESIAN_POINT('Ctrl Pts',(4.18862441641749,5.81028722169081,4.9960036108132E-16));
#1101=CARTESIAN_POINT('Ctrl Pts',(4.18862441641749,5.81028722169081,-0.320837328925122));
#1102=CARTESIAN_POINT('Ctrl Pts',(4.18615525105878,5.80350324562286,-0.656837528052876));
#1103=CARTESIAN_POINT('Ctrl Pts',(4.18049353446298,5.78794780712056,-1.));
#1104=CARTESIAN_POINT('Origin',(4.87061475842818,7.68404028665134,-1.));
#1105=CARTESIAN_POINT('',(6.09388973502266,5.19735186230238,-1.));
#1106=CARTESIAN_POINT('Ctrl Pts',(4.18049353446298,5.78794780712056,-1.));
#1107=CARTESIAN_POINT('Ctrl Pts',(4.49038309976993,5.72487321292147,-1.));
#1108=CARTESIAN_POINT('Ctrl Pts',(4.79670872220406,5.64742717725564,-1.));
#1109=CARTESIAN_POINT('Ctrl Pts',(5.42513737787482,5.4577084333816,-1.));
#1110=CARTESIAN_POINT('Ctrl Pts',(5.74478960415574,5.34235490056538,-1.));
#1111=CARTESIAN_POINT('Ctrl Pts',(6.06098175748542,5.21115984870235,-1.));
#1112=CARTESIAN_POINT('Ctrl Pts',(6.07742384172736,5.20428668996755,-1.));
#1113=CARTESIAN_POINT('Ctrl Pts',(6.09388973502266,5.19735186230238,-1.));
#1114=CARTESIAN_POINT('',(5.72393957002299,4.18092213764228,-1.));
#1115=CARTESIAN_POINT('',(3.84455432845118,4.86496242429361,-1.));
#1116=CARTESIAN_POINT('',(6.75,7.,-1.));
#1117=CARTESIAN_POINT('Origin',(6.75,7.,-1.));
#1118=CARTESIAN_POINT('',(6.10474766387238,5.22718377663903,1.51763379383148E-16));
#1119=CARTESIAN_POINT('Ctrl Pts',(6.09388973502266,5.19735186230238,-1.));
#1120=CARTESIAN_POINT('Ctrl Pts',(6.10131969227897,5.2177655020916,-0.659353829910626));
#1121=CARTESIAN_POINT('Ctrl Pts',(6.10474766387238,5.22718377663903,-0.32447329666348));
#1122=CARTESIAN_POINT('Ctrl Pts',(6.10474766387238,5.22718377663903,-4.44089209850063E-16));
#1123=CARTESIAN_POINT('',(5.72393957002299,4.18092213764228,-1.));
#1124=CARTESIAN_POINT('Ctrl Pts',(6.10474766387238,5.22718377663903,-5.55111512312578E-16));
#1125=CARTESIAN_POINT('Ctrl Pts',(6.10474766387238,5.22718377663903,0.324473296663479));
#1126=CARTESIAN_POINT('Ctrl Pts',(6.10131969227897,5.2177655020916,0.659353829910625));
#1127=CARTESIAN_POINT('Ctrl Pts',(6.09388973502266,5.19735186230238,1.));
#1128=CARTESIAN_POINT('Origin',(4.78424694923709,4.52294228096795,0.));
#1129=CARTESIAN_POINT('Origin',(-6.75,7.,-1.));
#1130=CARTESIAN_POINT('',(-6.09388973502266,5.19735186230238,-1.));
#1131=CARTESIAN_POINT('',(-4.18049353446298,5.78794780712056,-1.));
#1132=CARTESIAN_POINT('Ctrl Pts',(-6.09388973502266,5.19735186230238,-1.));
#1133=CARTESIAN_POINT('Ctrl Pts',(-6.07742384172736,5.20428668996755,-1.));
#1134=CARTESIAN_POINT('Ctrl Pts',(-6.06098175748542,5.21115984870235,-1.));
#1135=CARTESIAN_POINT('Ctrl Pts',(-5.74478960415575,5.34235490056538,-1.));
#1136=CARTESIAN_POINT('Ctrl Pts',(-5.42513737787482,5.4577084333816,-1.));
#1137=CARTESIAN_POINT('Ctrl Pts',(-4.79670872220406,5.64742717725564,-1.));
#1138=CARTESIAN_POINT('Ctrl Pts',(-4.49038309976993,5.72487321292147,-1.));
#1139=CARTESIAN_POINT('Ctrl Pts',(-4.18049353446298,5.78794780712056,-1.));
#1140=CARTESIAN_POINT('',(-5.72393957002299,4.18092213764228,-1.));
#1141=CARTESIAN_POINT('',(-6.75,7.,-1.));
#1142=CARTESIAN_POINT('',(-3.84455432845118,4.86496242429361,-1.));
#1143=CARTESIAN_POINT('',(-3.84455432845118,4.86496242429361,-1.));
#1144=CARTESIAN_POINT('',(-4.87061475842818,7.68404028665134,-1.));
#1145=CARTESIAN_POINT('Origin',(-4.87061475842818,7.68404028665134,-1.));
#1146=CARTESIAN_POINT('',(-4.18049353446298,5.78794780712056,1.));
#1147=CARTESIAN_POINT('Ctrl Pts',(-4.18049353446298,5.78794780712056,-1.));
#1148=CARTESIAN_POINT('Ctrl Pts',(-4.18615525105878,5.80350324562286,-0.656837528052877));
#1149=CARTESIAN_POINT('Ctrl Pts',(-4.18862441641748,5.8102872216908,-0.320837328925123));
#1150=CARTESIAN_POINT('Ctrl Pts',(-4.18862441641748,5.8102872216908,0.320837328925123));
#1151=CARTESIAN_POINT('Ctrl Pts',(-4.18615525105878,5.80350324562286,0.656837528052876));
#1152=CARTESIAN_POINT('Ctrl Pts',(-4.18049353446298,5.78794780712056,1.));
#1153=CARTESIAN_POINT('',(-3.84455432845118,4.86496242429361,1.));
#1154=CARTESIAN_POINT('',(-3.84455432845118,4.86496242429361,1.));
#1155=CARTESIAN_POINT('',(-4.87061475842818,7.68404028665134,1.));
#1156=CARTESIAN_POINT('Origin',(-4.87061475842818,7.68404028665134,1.));
#1157=CARTESIAN_POINT('',(-6.09388973502266,5.19735186230238,1.));
#1158=CARTESIAN_POINT('Ctrl Pts',(-4.18049353446298,5.78794780712056,1.));
#1159=CARTESIAN_POINT('Ctrl Pts',(-4.49038309976993,5.72487321292147,1.));
#1160=CARTESIAN_POINT('Ctrl Pts',(-4.79670872220406,5.64742717725564,1.));
#1161=CARTESIAN_POINT('Ctrl Pts',(-5.42513737787482,5.4577084333816,1.));
#1162=CARTESIAN_POINT('Ctrl Pts',(-5.74478960415575,5.34235490056538,1.));
#1163=CARTESIAN_POINT('Ctrl Pts',(-6.06098175748542,5.21115984870235,1.));
#1164=CARTESIAN_POINT('Ctrl Pts',(-6.07742384172736,5.20428668996755,1.));
#1165=CARTESIAN_POINT('Ctrl Pts',(-6.09388973502266,5.19735186230238,1.));
#1166=CARTESIAN_POINT('',(-5.72393957002299,4.18092213764228,1.));
#1167=CARTESIAN_POINT('',(-5.72393957002299,4.18092213764228,1.));
#1168=CARTESIAN_POINT('',(-6.75,7.,1.));
#1169=CARTESIAN_POINT('Origin',(-6.75,7.,1.));
#1170=CARTESIAN_POINT('Ctrl Pts',(-6.09388973502266,5.19735186230238,1.));
#1171=CARTESIAN_POINT('Ctrl Pts',(-6.10131969227897,5.2177655020916,0.659353829910626));
#1172=CARTESIAN_POINT('Ctrl Pts',(-6.10474766387238,5.22718377663902,0.324473296663479));
#1173=CARTESIAN_POINT('Ctrl Pts',(-6.10474766387238,5.22718377663902,-0.32447329666348));
#1174=CARTESIAN_POINT('Ctrl Pts',(-6.10131969227897,5.2177655020916,-0.659353829910625));
#1175=CARTESIAN_POINT('Ctrl Pts',(-6.09388973502266,5.19735186230238,-1.));
#1176=CARTESIAN_POINT('',(-5.72393957002299,4.18092213764228,-1.));
#1177=CARTESIAN_POINT('Origin',(-4.78424694923709,4.52294228096795,0.));
#1178=CARTESIAN_POINT('Origin',(0.,-1.,0.));
#1179=CARTESIAN_POINT('',(-10.5,-1.,1.28587913910472E-15));
#1180=CARTESIAN_POINT('Origin',(0.,-1.,0.));
#1181=CARTESIAN_POINT('',(-10.25,-1.,1.25526296912604E-15));
#1182=CARTESIAN_POINT('Origin',(0.,-1.,0.));
#1183=CARTESIAN_POINT('Ctrl Pts',(10.25,2.,0.));
#1184=CARTESIAN_POINT('Ctrl Pts',(10.25,2.,10.25));
#1185=CARTESIAN_POINT('Ctrl Pts',(0.,2.,10.25));
#1186=CARTESIAN_POINT('Ctrl Pts',(-10.25,2.,10.25));
#1187=CARTESIAN_POINT('Ctrl Pts',(-10.25,2.,0.));
#1188=CARTESIAN_POINT('Ctrl Pts',(-10.25,2.,-10.25));
#1189=CARTESIAN_POINT('Ctrl Pts',(0.,2.,-10.25));
#1190=CARTESIAN_POINT('Ctrl Pts',(10.25,2.,-10.25));
#1191=CARTESIAN_POINT('Ctrl Pts',(10.25,2.,0.));
#1192=CARTESIAN_POINT('Ctrl Pts',(7.25,6.,0.));
#1193=CARTESIAN_POINT('Ctrl Pts',(7.25,6.,7.25));
#1194=CARTESIAN_POINT('Ctrl Pts',(0.,6.,7.25));
#1195=CARTESIAN_POINT('Ctrl Pts',(-7.25,6.,7.25));
#1196=CARTESIAN_POINT('Ctrl Pts',(-7.25,6.,0.));
#1197=CARTESIAN_POINT('Ctrl Pts',(-7.25,6.,-7.25));
#1198=CARTESIAN_POINT('Ctrl Pts',(0.,6.,-7.25));
#1199=CARTESIAN_POINT('Ctrl Pts',(7.25,6.,-7.25));
#1200=CARTESIAN_POINT('Ctrl Pts',(7.25,6.,0.));
#1201=CARTESIAN_POINT('Ctrl Pts',(2.25,6.,0.));
#1202=CARTESIAN_POINT('Ctrl Pts',(2.25,6.,2.25));
#1203=CARTESIAN_POINT('Ctrl Pts',(0.,6.,2.25));
#1204=CARTESIAN_POINT('Ctrl Pts',(-2.25,6.,2.25));
#1205=CARTESIAN_POINT('Ctrl Pts',(-2.25,6.,0.));
#1206=CARTESIAN_POINT('Ctrl Pts',(-2.25,6.,-2.25));
#1207=CARTESIAN_POINT('Ctrl Pts',(0.,6.,-2.25));
#1208=CARTESIAN_POINT('Ctrl Pts',(2.25,6.,-2.25));
#1209=CARTESIAN_POINT('Ctrl Pts',(2.25,6.,0.));
#1210=CARTESIAN_POINT('',(2.25,6.,2.75545529808155E-16));
#1211=CARTESIAN_POINT('Origin',(0.,6.,0.));
#1212=CARTESIAN_POINT('Ctrl Pts',(2.25,6.,0.));
#1213=CARTESIAN_POINT('Ctrl Pts',(3.22859480518536,6.,0.));
#1214=CARTESIAN_POINT('Ctrl Pts',(4.18862441643727,5.8102872216869,0.));
#1215=CARTESIAN_POINT('',(10.25,2.,1.25526296912604E-15));
#1216=CARTESIAN_POINT('Ctrl Pts',(6.1047476638837,5.2271837766343,0.));
#1217=CARTESIAN_POINT('Ctrl Pts',(8.61663729934996,4.17781693420005,0.));
#1218=CARTESIAN_POINT('Ctrl Pts',(10.25,2.,0.));
#1219=CARTESIAN_POINT('Origin',(0.,2.,0.));
#1220=CARTESIAN_POINT('Origin',(0.,6.,0.));
#1221=CARTESIAN_POINT('Origin',(0.,1.,0.));
#1222=CARTESIAN_POINT('',(1.1327982892113E-15,0.809270137614797,9.25));
#1223=CARTESIAN_POINT('Origin',(0.,0.,0.));
#1224=CARTESIAN_POINT('',(1.1327982892113E-15,1.,9.25));
#1225=CARTESIAN_POINT('Origin',(0.,0.,0.));
#1226=CARTESIAN_POINT('',(-9.75,0.,1.19403062916867E-15));
#1227=CARTESIAN_POINT('Origin',(0.,0.,0.));
#1228=CARTESIAN_POINT('',(-9.75,1.,1.19403062916867E-15));
#1229=CARTESIAN_POINT('',(-9.75,0.,1.19403062916867E-15));
#1230=CARTESIAN_POINT('Origin',(0.,1.,0.));
#1231=CARTESIAN_POINT('Origin',(0.,0.,0.));
#1232=CARTESIAN_POINT('',(-10.25,1.,1.25526296912604E-15));
#1233=CARTESIAN_POINT('',(-10.25,0.,1.25526296912604E-15));
#1234=CARTESIAN_POINT('Origin',(0.,1.,0.));
#1235=CARTESIAN_POINT('Origin',(0.,1.,0.));
#1236=CARTESIAN_POINT('Origin',(0.,2.,0.));
#1237=CARTESIAN_POINT('',(-10.5,2.,1.28587913910472E-15));
#1238=CARTESIAN_POINT('Origin',(0.,2.,0.));
#1239=CARTESIAN_POINT('Origin',(0.,0.,0.));
#1240=CARTESIAN_POINT('',(-10.5,0.,1.28587913910472E-15));
#1241=CARTESIAN_POINT('Origin',(0.,0.,0.));
#1242=UNCERTAINTY_MEASURE_WITH_UNIT(LENGTH_MEASURE(0.001),#1246,
'DISTANCE_ACCURACY_VALUE',
'Maximum model space distance between geometric entities at asserted c
onnectivities');
#1243=UNCERTAINTY_MEASURE_WITH_UNIT(LENGTH_MEASURE(0.001),#1246,
'DISTANCE_ACCURACY_VALUE',
'Maximum model space distance between geometric entities at asserted c
onnectivities');
#1244=(
GEOMETRIC_REPRESENTATION_CONTEXT(3)
GLOBAL_UNCERTAINTY_ASSIGNED_CONTEXT((#1242))
GLOBAL_UNIT_ASSIGNED_CONTEXT((#1246,#1248,#1249))
REPRESENTATION_CONTEXT('','3D')
);
#1245=(
GEOMETRIC_REPRESENTATION_CONTEXT(3)
GLOBAL_UNCERTAINTY_ASSIGNED_CONTEXT((#1243))
GLOBAL_UNIT_ASSIGNED_CONTEXT((#1246,#1248,#1249))
REPRESENTATION_CONTEXT('','3D')
);
#1246=(
LENGTH_UNIT()
NAMED_UNIT(*)
SI_UNIT(.CENTI.,.METRE.)
);
#1247=(
LENGTH_UNIT()
NAMED_UNIT(*)
SI_UNIT($,.METRE.)
);
#1248=(
NAMED_UNIT(*)
PLANE_ANGLE_UNIT()
SI_UNIT($,.RADIAN.)
);
#1249=(
NAMED_UNIT(*)
SI_UNIT($,.STERADIAN.)
SOLID_ANGLE_UNIT()
);
#1250=SHAPE_DEFINITION_REPRESENTATION(#1251,#1252);
#1251=PRODUCT_DEFINITION_SHAPE('',$,#1254);
#1252=SHAPE_REPRESENTATION('',(#620),#1244);
#1253=PRODUCT_DEFINITION_CONTEXT('part definition',#1258,'design');
#1254=PRODUCT_DEFINITION('2026-05-21-22-34-17-852','Cattail Hat',#1255,
#1253);
#1255=PRODUCT_DEFINITION_FORMATION('',$,#1260);
#1256=PRODUCT_RELATED_PRODUCT_CATEGORY('Cattail Hat','Cattail Hat',(#1260));
#1257=APPLICATION_PROTOCOL_DEFINITION('international standard',
'automotive_design',2009,#1258);
#1258=APPLICATION_CONTEXT(
'Core Data for Automotive Mechanical Design Process');
#1259=PRODUCT_CONTEXT('part definition',#1258,'mechanical');
#1260=PRODUCT('2026-05-21-22-34-17-852','Cattail Hat',$,(#1259));
#1261=PRESENTATION_STYLE_ASSIGNMENT((#1263));
#1262=PRESENTATION_STYLE_ASSIGNMENT((#1264));
#1263=SURFACE_STYLE_USAGE(.BOTH.,#1265);
#1264=SURFACE_STYLE_USAGE(.BOTH.,#1266);
#1265=SURFACE_SIDE_STYLE('',(#1267));
#1266=SURFACE_SIDE_STYLE('',(#1268));
#1267=SURFACE_STYLE_FILL_AREA(#1269);
#1268=SURFACE_STYLE_FILL_AREA(#1270);
#1269=FILL_AREA_STYLE('Steel - Satin',(#1271));
#1270=FILL_AREA_STYLE('ABS (White)',(#1272));
#1271=FILL_AREA_STYLE_COLOUR('Steel - Satin',#1273);
#1272=FILL_AREA_STYLE_COLOUR('ABS (White)',#1274);
#1273=COLOUR_RGB('Steel - Satin',0.627450980392157,0.627450980392157,0.627450980392157);
#1274=COLOUR_RGB('ABS (White)',1.,0.72156862745098,0.992156862745098);
ENDSEC;
END-ISO-10303-21;
